<svg width="133" height="26" viewBox="0 0 133 26" fill="none" xmlns="http://www.w3.org/2000/svg">
<path d="M2.36266 7.09879C2.36266 4.49771 4.49771 2.36265 7.09879 2.36265H125.22C127.822 2.36265 129.957 4.49771 129.957 7.09879V25.8808H132.319V7.09879C132.319 3.18633 129.133 0 125.22 0H7.09879C3.18633 0 0 3.18633 0 7.09879V25.8808H2.36266V7.09879Z" fill="black"/>
<path d="M21.9141 21.1446C21.9141 21.3397 21.7949 21.4048 21.589 21.4048H19.8116C19.6057 21.4048 19.5406 21.3397 19.5406 21.1338V16.2893C19.5406 16.0617 19.3889 15.9425 19.1613 15.9425H14.4902C14.2843 15.9425 14.1651 16.0617 14.1651 16.2893V21.1338C14.1651 21.3397 14.0458 21.4048 13.8616 21.4048H12.0408C11.8674 21.4048 11.8024 21.3397 11.8024 21.1446V9.10379C11.8024 8.91955 11.8674 8.81117 12.0408 8.81117H13.8616C14.0458 8.81117 14.1651 8.90871 14.1651 9.10379V13.7641C14.1651 13.9808 14.2843 14.0892 14.4902 14.0892H19.1613C19.3889 14.0892 19.5406 13.9917 19.5406 13.7641V9.10379C19.5406 8.91955 19.6057 8.81117 19.8116 8.81117H21.589C21.7949 8.81117 21.9141 8.90871 21.9141 9.10379V21.1446Z" fill="black"/>
<path d="M26.2276 21.5782C24.9162 21.5782 24.2226 20.516 24.2226 19.6057V12.1167C24.2226 11.9 24.3093 11.7916 24.5152 11.7916H26.2276C26.401 11.7916 26.5202 11.8891 26.5202 12.1167V19.3456C26.5202 19.5515 26.6069 19.6599 26.8454 19.6599H29.9883C30.1942 19.6599 30.3351 19.5623 30.3351 19.3456V12.1167C30.3351 11.9 30.4218 11.7916 30.6278 11.7916H32.3401C32.5244 11.7916 32.6544 11.8891 32.6544 12.1167V23.0304C32.6544 23.3014 32.5677 23.5615 32.4485 23.8216L31.278 25.7291C31.1805 25.9025 31.0179 26 30.8554 26H30.6386C30.4327 26 30.346 25.8808 30.346 25.6965V20.8629C30.346 20.6569 30.2268 20.5702 30.0425 20.6244L26.7587 21.5456C26.6069 21.5782 26.4118 21.5782 26.2601 21.5782" fill="black"/>
<path d="M36.9029 21.5673C35.8624 21.5673 34.9304 20.7111 34.9304 19.5948V12.1276C34.9304 11.9108 35.0171 11.8024 35.223 11.8024H36.9571C37.1088 11.8024 37.228 11.9 37.228 12.1276V19.3564C37.228 19.5623 37.3364 19.649 37.5748 19.649H40.7178C40.9237 19.649 41.0538 19.5623 41.0538 19.3564V12.1276C41.0538 11.9108 41.1188 11.8024 41.3356 11.8024H43.0479C43.2322 11.8024 43.3514 11.9 43.3514 12.1276V21.1555C43.3514 21.3506 43.2322 21.4156 43.0479 21.4156H41.3356C41.1296 21.4156 41.0538 21.3506 41.0538 21.1446V20.8737C41.0538 20.6569 40.9237 20.5594 40.7286 20.6353L37.4448 21.524C37.2714 21.5782 37.0871 21.5782 36.9137 21.5782" fill="black"/>
<path d="M54.0592 13.6557V21.1555C54.0592 21.3506 53.94 21.4156 53.7557 21.4156H52.0434C51.8374 21.4156 51.7724 21.3506 51.7724 21.1446V13.9158C51.7724 13.699 51.6315 13.5798 51.4256 13.5798H48.2934C48.055 13.5798 47.9467 13.699 47.9467 13.9158V21.1446C47.9467 21.3506 47.8274 21.4156 47.6757 21.4156H45.9525C45.7466 21.4156 45.6599 21.3506 45.6599 21.1555V12.1276C45.6599 11.9108 45.7466 11.8024 45.9525 11.8024H47.6757C47.8274 11.8024 47.9467 11.9 47.9467 12.1276V12.4202C47.9467 12.6153 48.0333 12.6911 48.2934 12.6261L51.5665 11.7374C51.7399 11.7049 51.8916 11.6507 52.065 11.6507C53.1922 11.6507 54.07 12.5936 54.07 13.6557" fill="black"/>
<path d="M56.0208 19.584V15.2705C56.0208 14.3493 56.411 13.634 57.2347 13.1897L59.0446 12.1276C59.4239 11.8891 59.8032 11.7807 60.2476 11.7807H61.8299C62.0575 11.7807 62.1551 11.694 62.1551 11.4881V7.94414C62.1551 7.7599 62.2418 7.61901 62.4043 7.61901H64.1492C64.3552 7.61901 64.4419 7.7599 64.4419 7.94414V21.1338C64.4419 21.3289 64.3552 21.3939 64.1492 21.3939H62.4043C62.2309 21.3939 62.1551 21.3289 62.1551 21.123V20.852C62.1551 20.6353 62.0575 20.5377 61.8299 20.6136L58.5244 21.5023C58.3293 21.5673 58.1776 21.5673 58.015 21.5673C57.1263 21.5998 56.0317 20.7762 56.0317 19.5948M62.1659 19.3564V13.9266C62.1659 13.6882 62.0684 13.569 61.8191 13.569H58.6544C58.416 13.569 58.3293 13.6882 58.3293 13.9266V19.3564C58.3293 19.5623 58.416 19.649 58.6544 19.649H61.8191C62.0684 19.649 62.1659 19.5623 62.1659 19.3564Z" fill="black"/>
<path d="M68.3977 21.5673C67.3139 21.5673 66.4143 20.6895 66.4143 19.5948V15.2814C66.4143 14.3601 66.8045 13.6557 67.6173 13.2113L69.4489 12.1492C69.8283 11.9108 70.2076 11.8024 70.6303 11.8024H74.5536C74.7378 11.8024 74.8462 11.9 74.8462 12.1276V21.1555C74.8462 21.3506 74.7486 21.4156 74.5536 21.4156H72.8087C72.6136 21.4156 72.5486 21.3506 72.5486 21.1446V20.8737C72.5486 20.6569 72.4294 20.5594 72.2018 20.6353L68.9179 21.524C68.7228 21.5782 68.5711 21.5782 68.4085 21.5782M72.5486 19.3672V13.9375C72.5486 13.699 72.4294 13.5798 72.2018 13.5798H69.0371C68.7987 13.5798 68.712 13.699 68.712 13.9375V19.3672C68.712 19.5732 68.7987 19.6599 69.0371 19.6599H72.2018C72.4294 19.6599 72.5486 19.5732 72.5486 19.3672Z" fill="black"/>
<path d="M79.4306 9.35306C79.4306 9.55898 79.3222 9.62401 79.138 9.62401H77.4256C77.2088 9.62401 77.133 9.55898 77.133 9.35306V7.95498C77.133 7.77074 77.198 7.62984 77.4256 7.62984H79.138C79.3222 7.62984 79.4306 7.77074 79.4306 7.95498V9.35306ZM79.4306 21.1446C79.4306 21.3397 79.3222 21.4048 79.138 21.4048H77.4256C77.2088 21.4048 77.133 21.3397 77.133 21.1446V12.1167C77.133 11.9 77.198 11.7916 77.4256 11.7916H79.138C79.3222 11.7916 79.4306 11.9 79.4306 12.1167V21.1446Z" fill="black"/>
<path d="M84.1342 18.9337V12.4419C84.1342 11.4881 84.5461 10.7511 85.3806 10.2526L87.3856 9.13631C87.7432 8.91955 88.1767 8.81117 88.5669 8.81117H92.8154C93.0213 8.81117 93.1188 8.90871 93.1188 9.12547V10.3718C93.1188 10.5561 93.0213 10.6428 92.8154 10.6428H86.8762C86.6703 10.6428 86.5836 10.762 86.5836 10.9896V19.248C86.5836 19.4648 86.6703 19.5732 86.8762 19.5732H92.9888C93.1838 19.5732 93.303 19.6599 93.303 19.8333C93.303 20.0283 93.2163 20.1801 93.0213 20.2776L91.5473 21.1013C91.1572 21.3289 90.7345 21.4156 90.3226 21.4156H86.6269C85.4131 21.4156 84.1234 20.5486 84.1234 18.9554" fill="black"/>
<path d="M96.7603 21.5673C95.6874 21.5673 94.777 20.6895 94.777 19.5948V15.2814C94.777 14.3601 95.178 13.6557 95.98 13.2113L97.8116 12.1492C98.1909 11.9108 98.5702 11.8024 98.9929 11.8024H102.916C103.111 11.8024 103.209 11.9 103.209 12.1276V21.1555C103.209 21.3506 103.111 21.4156 102.916 21.4156H101.171C100.987 21.4156 100.911 21.3506 100.911 21.1446V20.8737C100.911 20.6569 100.792 20.5594 100.564 20.6353L97.2805 21.524C97.0963 21.5782 96.9337 21.5782 96.7603 21.5782M100.911 19.3672V13.9375C100.911 13.699 100.792 13.5798 100.564 13.5798H97.3997C97.1613 13.5798 97.0746 13.699 97.0746 13.9375V19.3672C97.0746 19.5732 97.1613 19.6599 97.3997 19.6599H100.564C100.792 19.6599 100.911 19.5732 100.911 19.3672Z" fill="black"/>
<path d="M111.782 13.3089C111.782 13.4823 111.662 13.569 111.478 13.569H108.108C107.88 13.569 107.793 13.6882 107.793 13.905V21.1338C107.793 21.3397 107.663 21.4048 107.49 21.4048H105.756C105.55 21.4048 105.485 21.3289 105.485 21.1446V12.1167C105.485 11.9 105.55 11.7916 105.756 11.7916H107.49C107.663 11.7916 107.793 11.8891 107.793 12.1167V12.3877C107.793 12.5827 107.88 12.6586 108.108 12.6586C108.162 12.6586 108.227 12.6586 108.303 12.6261L109.289 11.9758C109.647 11.7916 110.026 11.6832 110.47 11.6832H111.478C111.662 11.6832 111.782 11.7807 111.782 11.9758V13.3089Z" fill="black"/>
<path d="M112.128 19.584V15.2705C112.128 14.3493 112.519 13.634 113.342 13.1897L115.163 12.1276C115.542 11.8891 115.922 11.7807 116.366 11.7807H117.937C118.165 11.7807 118.263 11.694 118.263 11.4881V7.94414C118.263 7.7599 118.349 7.61901 118.512 7.61901H120.257C120.463 7.61901 120.549 7.7599 120.549 7.94414V21.1338C120.549 21.3289 120.463 21.3939 120.257 21.3939H118.512C118.338 21.3939 118.263 21.3289 118.263 21.123V20.852C118.263 20.6353 118.165 20.5377 117.937 20.6136L114.632 21.5023C114.448 21.5673 114.285 21.5673 114.123 21.5673C113.234 21.5998 112.139 20.7762 112.139 19.5948M118.273 19.3564V13.9266C118.273 13.6882 118.176 13.569 117.927 13.569H114.762C114.524 13.569 114.437 13.6882 114.437 13.9266V19.3564C114.437 19.5623 114.524 19.649 114.762 19.649H117.927C118.165 19.649 118.273 19.5623 118.273 19.3564Z" fill="black"/>
</svg>
