<?xml version="1.0" encoding="utf-8"?>
<!-- Generator: Adobe Illustrator 27.2.0, SVG Export Plug-In . SVG Version: 6.00 Build 0)  -->
<svg version="1.1" id="Layer_1" xmlns="http://www.w3.org/2000/svg" xmlns:xlink="http://www.w3.org/1999/xlink" x="0px" y="0px"
	 viewBox="0 0 630.7 85.1" style="enable-background:new 0 0 630.7 85.1;" xml:space="preserve">
<style type="text/css">
	.st0{fill:#FFFFFF;}
	.st1{fill:#0079C1;}
</style>
<g>
	<g>
		<g>
			<path d="M109.3,55.1V32.9h7.3c6.6,0,12.2,2.5,12.2,10.9c0,8.7-5.7,11.2-12.2,11.2H109.3z M115.2,50.2h1.6c4.5,0,5.9-1.9,5.9-6.4
				c0-4.1-1.4-6-5.9-6h-1.6V50.2z"/>
			<path d="M131.8,44c0-8.1,5.6-11.5,10.9-11.5c5.3,0,10.9,3.4,10.9,11.5c0,8.1-5.5,11.5-10.9,11.5C137.4,55.5,131.8,52.1,131.8,44z
				 M147.7,44c0-4.1-1.8-6.6-4.9-6.6c-3.2,0-4.9,2.5-4.9,6.6s1.8,6.7,4.9,6.7C145.9,50.7,147.7,48.1,147.7,44z"/>
			<path d="M157.5,55.1V32.9h5.9l8.1,12.4h0.1V32.9h5.5v22.2h-5.6L163,42.7H163v12.4H157.5z"/>
			<path d="M181.7,42.1l1.5-3.8h-2v-5.4h5.9v4.9l-2.7,4.3H181.7z"/>
			<path d="M196.2,55.1V37.9h-6.4v-5h18.8v5h-6.4v17.2H196.2z"/>
			<path d="M425.7,55.1l-5.9-22.2h6l1.9,8.7c0.4,1.4,0.7,2.5,1,4.6h0.1c0.3-2,0.6-3.1,0.9-4.6l1.8-8.8h5.4l2,8.8
				c0.4,1.7,0.7,2.4,1,4.5h0.1c0.3-2.1,0.5-2.7,0.8-4.5l1.8-8.8h5.5l-5.8,22.2h-5l-3-13.9h-0.1l-3.4,13.9H425.7z"/>
			<path d="M451.4,55.1V32.9h6v22.2H451.4z"/>
			<path d="M467.3,55.1V37.9h-6.4v-5h18.8v5h-6.4v17.2H467.3z"/>
			<path d="M483,32.9h6v8.2h7.4v-8.2h6v22.2h-6v-9H489v9h-6V32.9z"/>
			<path d="M506.2,44c0-8.1,5.6-11.5,10.9-11.5c5.3,0,10.9,3.4,10.9,11.5c0,8.1-5.6,11.5-10.9,11.5C511.8,55.5,506.2,52.1,506.2,44z
				 M522,44c0-4.1-1.8-6.6-4.9-6.6c-3.1,0-4.9,2.5-4.9,6.6s1.8,6.7,4.9,6.7C520.3,50.7,522,48.1,522,44z"/>
			<path d="M531.4,46.2V32.9h6v13.3c0,3.1,1,4.4,3.4,4.4s3.4-1.4,3.4-4.4V32.9h5.9v13.3c0,5.9-2.8,9.2-9.3,9.2
				C534.3,55.4,531.4,52,531.4,46.2z"/>
			<path d="M559.3,55.1V37.9h-6.4v-5h18.8v5h-6.4v17.2H559.3z"/>
			<path d="M584.3,55.1V32.9h6v22.2H584.3z"/>
			<path d="M600.2,55.1V37.9h-6.4v-5h18.8v5h-6.4v17.2H600.2z"/>
		</g>
		<path d="M399,48.7C399,48.7,399,48.7,399,48.7C398.9,48.7,398.9,48.7,399,48.7L399,48.7z M396,52.3c0,0.1,0,0.1-0.1,0.2h-0.1
			C395.8,52.3,395.8,52.3,396,52.3L396,52.3z M374.8,51.5c0,0.2-0.1,0.2-0.2,0C374.7,51.3,374.8,51.3,374.8,51.5 M374.9,50.4
			C374.9,50.2,374.9,50.3,374.9,50.4C374.8,50.8,374.8,50.7,374.9,50.4 M402.1,45.8c0,0.1-0.1,0.1-0.2,0.1L402.1,45.8z M407.5,43.3
			C407.6,43.3,407.6,43.3,407.5,43.3c-0.1,0.2-0.1,0.2-0.1,0.2C407.4,43.4,407.4,43.4,407.5,43.3C407.5,43.3,407.5,43.3,407.5,43.3
			 M407.7,42.7C407.8,42.6,407.8,42.6,407.7,42.7C407.8,42.9,407.8,42.9,407.7,42.7 M408.8,40.5C408.8,40.7,408.8,40.7,408.8,40.5
			C408.8,40.4,408.8,40.4,408.8,40.5 M379.3,39.2c-0.7,1.6-1.4,3.3-2.3,5c-0.8,1.7-1.5,3.6-2,5.6c0.2-2,0.8-3.8,1.7-5.4
			c0.9-1.6,1.6-3.3,2.3-4.9C379.3,39.4,379.3,39.3,379.3,39.2 M380.2,37.8C380.1,37.8,380.1,37.8,380.2,37.8
			C380.2,38,380.2,37.9,380.2,37.8 M380.8,36.8c0.1,0,0.1-0.1,0.1-0.2c0.1,0.1,0.1,0.2,0,0.3c-0.1,0.1-0.2,0.2-0.3,0.2
			C380.6,36.9,380.7,36.9,380.8,36.8 M381.3,35.3c0.1,0.1,0.1,0.1-0.1,0.1C381.1,35.2,381.2,35.2,381.3,35.3 M381.9,35.3
			c0-0.1,0-0.2,0.1-0.3c0.1-0.1,0.1-0.2,0.1-0.3c0.1,0.1,0.1,0.2,0,0.3C382.1,35.2,382,35.3,381.9,35.3c0,0.1,0,0.2-0.1,0.2h-0.1
			c-0.1,0.2-0.2,0.4-0.3,0.5c-0.1,0.1-0.2,0.3-0.3,0.5c-0.1-0.1,0-0.3,0.1-0.6c0.1-0.2,0.3-0.4,0.5-0.5h0.1
			C381.8,35.4,381.8,35.3,381.9,35.3 M382.6,34.2C382.7,34.2,382.7,34.2,382.6,34.2c0.1-0.1,0.1-0.1,0.1,0
			C382.8,34.2,382.7,34.3,382.6,34.2L382.6,34.2c0,0.2-0.1,0.2-0.1,0.2C382.4,34.4,382.5,34.3,382.6,34.2
			C382.6,34.2,382.6,34.2,382.6,34.2 M383,33.6C383,33.6,383,33.7,383,33.6c0,0.3,0,0.3-0.1,0.2C382.7,33.8,382.7,33.7,383,33.6
			C382.9,33.7,382.9,33.6,383,33.6 M395.7,33.7c0.1-0.1,0.1-0.2,0.1-0.4c0.1,0.1,0.1,0.2,0,0.4c-0.1,0.1-0.1,0.2,0,0.4
			C395.6,34,395.6,33.8,395.7,33.7 M383.2,33.3C383.2,33.2,383.2,33.2,383.2,33.3C383.2,33.6,383.2,33.5,383.2,33.3 M383.5,32.9
			C383.5,33.1,383.5,33.1,383.5,32.9C383.5,32.8,383.5,32.8,383.5,32.9 M383.5,32.3C383.5,32.4,383.5,32.4,383.5,32.3
			C383.4,32.3,383.4,32.3,383.5,32.3 M384.7,31.5c0-0.1,0.1-0.1,0.2-0.1C384.9,31.5,384.8,31.5,384.7,31.5c0.1,0.2,0,0.2-0.1,0.2
			c0.1,0.2,0,0.4-0.3,0.4v0.1c0,0.1-0.1,0.1-0.2,0.1v0.1c0,0.1,0,0.1-0.1,0.1c0.1,0.1,0,0.2,0,0.1c-0.1-0.1-0.1-0.1,0-0.1
			c0-0.1,0-0.2,0.1-0.2c0-0.1,0.1-0.1,0.2-0.1v-0.1c0-0.1,0-0.2,0.1-0.2c0.1,0,0.1-0.1,0.1-0.2h0.1
			C384.6,31.6,384.6,31.6,384.7,31.5 M385.1,31c0-0.2,0.1-0.3,0.2-0.2C385.4,30.9,385.3,31,385.1,31C385.1,31.1,385.1,31.1,385.1,31
			C384.9,31.1,385,31.1,385.1,31 M386.9,35.2c0.9-1,1.7-2,2.5-3c0.8-1,1.8-1.8,3-2.4c0.1,0.1,0.2,0.3,0.1,0.5c0,0.2,0,0.4,0.1,0.6
			c-0.1,0.6-0.3,1-0.5,1.3c-0.2,0.3-0.3,0.7-0.4,1.2c-1.4,2.2-2.9,4.3-4.4,6.3c-1.5,2-3.3,3.8-5.2,5.4c0.7-1.8,1.5-3.5,2.4-5.1
			C385.4,38.4,386.2,36.8,386.9,35.2 M396.5,32.2c0.1-0.2,0.1-0.5,0.2-0.8c-0.1-1.7-0.8-2.9-2-3.4c-1.2-0.6-2.6-0.8-4.2-0.8
			c-0.2-0.1-0.5-0.2-0.7-0.2c-0.2,0-0.5-0.1-0.8-0.2c-1.4,1.1-2.6,2.1-3.7,3.2c-1.1,1.1-2.1,2.4-3,3.8l0.2,0.2
			c-0.1,0-0.2-0.1-0.2-0.2c-0.2,0.2-0.4,0.4-0.5,0.7c-0.1,0.2-0.1,0.5-0.2,0.6c0-0.2,0-0.3-0.1-0.3c-0.7,1.2-1.5,2.5-2.2,3.7
			c-0.7,1.2-1.4,2.5-2,4c-0.1,0.3-0.3,0.6-0.5,0.9c-0.2,0.3-0.4,0.6-0.5,0.9c-0.4,1.1-0.8,2.3-1.2,3.5c-0.3,1.2-0.6,2.5-0.7,3.7
			c-0.2,1.2-0.2,2.5,0,3.7c0.2,1.2,0.5,2.4,1.2,3.5c0.3,0.5,0.6,1,1,1.4c0.3,0.5,0.7,0.9,1.1,1.4c0.4,0.5,0.8,0.9,1.3,1.3
			c0.5,0.4,0.9,0.8,1.3,1.3c0.4,0.1,0.7,0.2,1,0.3c0.3,0.1,0.6,0.2,0.8,0.4c0.2,0,0.4,0,0.5,0.1c0.2,0.1,0.4,0.2,0.6,0.3
			c0.3,0,0.6,0,0.7,0c0.2,0,0.4,0,0.7,0c1.4-0.1,2.6-0.3,3.6-0.7c1.1-0.4,2-0.9,2.9-1.5c0.9-0.6,1.7-1.2,2.5-1.9
			c0.8-0.7,1.5-1.4,2.3-2.1c0-0.1,0-0.1-0.1-0.2h-0.1V59c0,0.1,0,0.1-0.1,0.1c0,0.1,0,0.1-0.1,0.1c-0.1,0.1-0.2,0.1-0.2,0
			c0.1-0.1,0.2-0.1,0.3-0.1c0-0.1,0-0.2,0.1-0.2c1.5-1.5,3-3.2,4.4-4.8c1.4-1.7,2.8-3.4,4.2-5.2c0-0.3,0.1-0.5,0.3-0.6
			c0.2-0.1,0.2-0.3,0.1-0.7c0.2,0.2,0.3,0.2,0.3,0c0-0.2,0.1-0.2,0.2-0.1c0.3-1.1,0.8-1.9,1.6-2.7c0.8-0.7,1.3-1.6,1.4-2.7
			c0.1-0.3,0.3-0.6,0.6-0.9c0.2-0.3,0.3-0.7,0.2-1.2c0.1,0,0.2,0,0.2-0.1c-0.1,0.1-0.1,0.1-0.1,0c0.1-0.1,0.2-0.3,0.3-0.4
			c0.2-0.2,0.1-0.3,0-0.4c0,0.2-0.1,0.3-0.2,0.3c0-0.1,0.1-0.2,0.2-0.3c0.1-0.1,0.2-0.2,0.2-0.4c0-0.1,0-0.2,0.1-0.4
			c-0.1-0.1-0.2,0-0.2,0.1c0,0.2,0,0.2-0.1,0c0.2-0.4,0.3-0.7,0.4-0.9c0.1-0.2,0.2-0.5,0.3-0.8c-0.3-0.2-0.6-0.3-0.7-0.1
			c-0.2,0.2-0.4,0.3-0.7,0.4c-0.3,0.5-0.6,0.9-1,1.2c-0.3,0.3-0.6,0.7-0.8,1.3c-0.2,0.1-0.5,0.3-0.8,0.7c-0.3,0.3-0.4,0.6-0.4,1
			c-0.2,0.1-0.3,0-0.3,0c0-0.1-0.1-0.1-0.2,0c-0.1,0.6-0.4,1-0.9,1.4c-0.5,0.4-0.8,0.8-0.8,1.2c-0.2-0.1-0.4,0.1-0.6,0.4
			c-0.1,0.3-0.2,0.6-0.4,0.7c-0.3,0.1-0.6,0.3-0.7,0.6c-0.2,0.2-0.3,0.5-0.5,0.8c-0.1-0.1-0.2-0.1-0.3,0c-0.1,0.2-0.2,0.3-0.3,0.4
			c-0.3,0.3-0.6,0.6-0.8,0.9c-0.2,0.3-0.5,0.6-0.8,0.9h-0.1c-0.7,0.9-1.6,1.8-2.5,2.5c-0.9,0.7-1.7,1.6-2.5,2.6
			c0.1-0.1,0-0.1-0.1-0.1c-0.2,0.3-0.4,0.5-0.7,0.7c-0.3,0.1-0.5,0.4-0.6,0.8c-0.3-0.1-0.5,0-0.7,0.2c-0.2,0.3-0.4,0.5-0.6,0.6
			c-0.7,0.6-1.5,1.1-2.2,1.8c-0.7,0.6-1.5,1.2-2.3,1.7c-0.8,0.5-1.7,1-2.6,1.3c-0.9,0.4-1.9,0.6-3.1,0.6c-0.6-0.6-0.9-1.4-1.2-2.5
			c-0.2-1-0.3-2.1-0.3-3.2c0-1.1,0.1-2.2,0.3-3.3c0.2-1.1,0.4-2,0.7-2.7c0.7-0.3,1.4-0.6,2.1-1c0.7-0.3,1.3-0.8,1.8-1.3
			c0.1,0.1,0.1,0.2,0.1,0.1c0-0.1,0.1-0.1,0.2-0.1c2.3-2,4.4-4.1,6.4-6.4c2-2.3,3.6-5,4.9-8.1h-0.1c0-0.2,0-0.4,0.1-0.4v0.4
			C396.4,32.8,396.4,32.5,396.5,32.2 M358.9,61.1C358.9,61.3,358.9,61.3,358.9,61.1C358.9,61,358.9,61,358.9,61.1 M358.9,59.4
			C358.8,59.5,358.8,59.5,358.9,59.4C359.1,59.3,359.1,59.3,358.9,59.4 M359,58.5c0-0.2,0.1-0.3,0.1-0.3c0.1,0.1,0.2,0.2,0.1,0.3
			c-0.1,0.1-0.1,0.2-0.1,0.3C359,58.8,359,58.7,359,58.5 M359.5,56.7c0,0.2-0.1,0.2-0.1,0C359.5,56.5,359.6,56.5,359.5,56.7
			 M359.5,55.8c-0.1,0-0.1,0,0-0.2C359.6,55.7,359.6,55.8,359.5,55.8 M359.6,55c0.1-0.1,0.1-0.2,0-0.2c0.1-0.2,0.1-0.1,0.2,0.2
			c0.1,0.3,0,0.4-0.3,0.3C359.5,55.2,359.5,55.1,359.6,55 M359.9,53.8c0.1,0.1,0,0.1-0.1,0.1c0,0.1,0,0.1,0.1,0.1
			c0.1,0,0.1,0.1,0.1,0.2c-0.2,0-0.2-0.1-0.2-0.3C359.8,53.7,359.8,53.7,359.9,53.8 M360.2,52.5c0,0.3,0,0.5-0.1,0.6
			c-0.1-0.1-0.1-0.1,0-0.2C360.1,52.8,360.1,52.7,360.2,52.5L360.2,52.5z M360.2,52.3c-0.1-0.1-0.2-0.1-0.2-0.2s0.1-0.1,0.2-0.1
			c0.1,0.1,0.1,0.2,0,0.2C360.3,52.1,360.2,52.1,360.2,52.3 M360.6,49.5c0-0.2,0.1-0.4,0.2-0.6c0,0.2,0,0.4-0.1,0.6
			c-0.1,0.2-0.1,0.4,0,0.6h-0.1v0.5h-0.1c0,0.4-0.1,0.6-0.2,0.6c-0.1-0.1-0.1-0.2,0-0.3c0.1-0.1,0.1-0.2,0-0.4h0.2
			c-0.2-0.1-0.2-0.3,0-0.5h0.1C360.6,49.9,360.5,49.7,360.6,49.5 M360.8,48.4c0.1,0,0.1-0.1,0-0.2c0.2-0.1,0.2,0,0.2,0.2
			c-0.1,0.2-0.2,0.3-0.3,0.3C360.7,48.6,360.7,48.5,360.8,48.4 M361.1,47.4c0.1,0.1,0.1,0.1,0,0.1v0.3c0,0.1-0.1,0.1-0.3,0.1
			c0.1,0,0.2-0.1,0.1-0.2c0-0.2,0-0.2,0.1-0.2C361,47.4,361,47.3,361.1,47.4 M361,47.1c0-0.1,0.1-0.1,0.1-0.1c0.1,0,0.2,0,0.1,0.1
			c-0.1,0.1-0.1,0.1-0.1,0.2C361,47.3,361,47.2,361,47.1 M362.2,42.2C362.3,42.2,362.3,42.3,362.2,42.2c0.1,0.3,0,0.4,0,0.4
			C362.1,42.5,362.1,42.4,362.2,42.2C362.1,42.1,362.1,42.1,362.2,42.2 M362.6,40.2c0.1-0.6,0.2-1.1,0.4-1.6c0,0.4-0.1,1-0.2,1.6
			c-0.2,0.6-0.3,1.2-0.5,1.7C362.3,41.4,362.4,40.8,362.6,40.2 M363.6,36c0.2-0.6,0.3-1.2,0.5-1.9c0,0.7-0.1,1.3-0.3,1.9
			c-0.2,0.6-0.4,1.3-0.6,1.9c0.1,0.1,0.1,0.2,0,0.2c-0.1,0-0.1,0.1-0.1,0.2c-0.1-0.1-0.1-0.2,0-0.2c0.1,0,0.1-0.1,0-0.2h0.1
			C363.2,37.3,363.4,36.7,363.6,36 M364.2,33.8C364.1,33.9,364.1,33.9,364.2,33.8C364.4,33.6,364.4,33.6,364.2,33.8 M364.6,32.7
			c-0.1,0.4-0.2,0.6-0.4,0.6c0,0.1,0,0.2,0,0.1c0-0.1,0-0.1,0-0.1C364.2,32.9,364.4,32.7,364.6,32.7 M364.5,32.4l0.2,0.2
			c-0.1,0-0.1,0-0.1,0.1C364.5,32.6,364.5,32.5,364.5,32.4 M364.7,31.7c0.2-0.2,0.2-0.4,0-0.6c0.2,0,0.3,0.1,0.2,0.4
			c-0.1,0.2-0.2,0.4-0.3,0.6C364.6,32,364.6,31.9,364.7,31.7 M364.9,30.8c0.1,0,0.1-0.1,0.1-0.3c0.1,0.1,0.1,0.2,0,0.3
			c-0.1,0.1-0.2,0.2-0.3,0.2C364.8,30.8,364.8,30.8,364.9,30.8 M365.2,30.5c-0.1-0.3,0-0.7,0.2-1.1c0.2-0.4,0.3-0.7,0.3-0.9
			c0.1,0.2,0.1,0.5-0.1,0.9C365.3,29.8,365.2,30.2,365.2,30.5 M365.9,27.4c0.1-0.1,0.2-0.1,0.2,0c0,0.2-0.1,0.2-0.2,0.1V27.4z
			 M366.5,26C366.3,26.1,366.3,26.1,366.5,26C366.6,25.9,366.6,25.9,366.5,26 M366.8,24.4c0.1,0,0.2,0.1,0.2,0.2
			c0,0.1,0,0.2-0.1,0.3C366.9,24.9,366.8,24.8,366.8,24.4 M376.3,16c0.1,0,0.2,0.1,0.2,0.3h-0.2V16z M373,11.1
			C373,11.3,373,11.3,373,11.1C373,11,373,11,373,11.1 M374.5,19.1c0.4-0.4,0.6-0.9,0.8-1.5c0.2-0.6,0.5-1,1-1.3
			c0.1,1.2,0,2.4,0,3.6c-0.1,1.2,0.1,2.4,0.5,3.7c0.5,0.4,1.2,0.5,2,0.5c0.8,0,1.5-0.2,2-0.5v-0.4c-0.4-0.9-0.6-1.8-0.6-2.7
			c0-1,0-1.9,0.1-2.9c0.1-1,0.1-2,0.1-2.9s-0.2-1.9-0.6-2.7c-0.3-0.1-0.5-0.3-0.7-0.5c-0.1-0.2-0.3-0.4-0.6-0.4
			c-0.8-0.3-1.7-0.4-2.8-0.3c-1.1,0.1-2,0.1-3-0.2c0.1,0.2,0.1,0.4,0,0.5c-0.2,0.1-0.2,0.2-0.1,0.5c-0.7,0.4-1.2,1.1-1.6,1.9
			c-0.4,0.8-0.8,1.7-1.3,2.5c-1.7,4.3-3.2,8.7-4.5,13.2c-1.3,4.5-2.5,9.2-3.5,14.1c-0.5,0.2-0.9,0.5-1.3,0.6
			c-0.4,0.2-0.8,0.4-1.3,0.7c-0.3-0.1-0.5-0.1-0.6,0c-0.1,0-0.2,0-0.4-0.1c0.2,0.6,0.6,1.1,1,1.4c0.4,0.3,0.8,0.7,1.2,1.2
			c0.1-0.1,0.2-0.2,0.3-0.2c0.2,0,0.2,0.1,0.2,0.2c-0.3,2.2-0.7,4.3-1.1,6.4c-0.4,2.1-0.7,4.3-1,6.4c-0.3,2.1-0.4,4.2-0.4,6.4
			c0,2.2,0.4,4.4,1.1,6.7c0.9,0.4,1.6,1,2.2,1.8v-0.3c0.1,0.1,0.2,0.2,0.4,0.3c0.2,0.1,0.3,0.2,0.4,0.5c0.5-0.3,1-0.4,1.6-0.2
			c0.6,0.2,1,0,1.3-0.5c-0.2-0.3-0.3-0.8-0.4-1.4c-0.1-0.7-0.2-1.3-0.3-1.8c-0.1-3.6,0.1-7.2,0.6-10.6c0.6-3.4,1.1-7,1.7-10.8
			c0.3-1,0.5-1.9,0.7-2.6c0.2-0.7,0.3-1.5,0.5-2.4c1-0.5,1.9-1,2.9-1.5c0.9-0.5,1.9-0.9,3.1-1.3c0.2-0.3,0.5-0.6,0.7-0.7
			c0.2-0.2,0.4-0.4,0.5-0.6c-0.3-0.4-0.7-0.7-1.3-0.8c-0.6-0.1-1.1-0.2-1.8-0.1c-0.6,0-1.2,0.1-1.8,0.2c-0.6,0.1-1,0.1-1.3,0.1
			c0.1-0.4,0.1-0.8,0.1-1.2c0-0.4,0.1-0.8,0.3-1.1c-0.1,0-0.1-0.1,0-0.2c0.1-0.1,0.1-0.2,0-0.4c0.9-2.9,1.7-5.9,2.4-9
			c0.7-3.1,1.5-6,2.6-8.8C374.6,19.3,374.5,19.2,374.5,19.1 M353.2,60.6c0.1,0.1,0.2,0,0.2-0.1C353.1,60.4,353.1,60.5,353.2,60.6
			 M353.7,60.1c0.1,0.1,0.2,0,0.2-0.1C353.6,60,353.5,60,353.7,60.1 M354.4,59.5c0.1-0.1,0-0.2-0.1-0.2
			C354.2,59.6,354.3,59.6,354.4,59.5 M349.2,57.9C349.1,58,349.1,58,349.2,57.9c0,0,0-0.1,0.1-0.1c0.1,0,0-0.1-0.1-0.1
			C349.3,57.8,349.3,57.9,349.2,57.9 M350,57c-0.1,0-0.2,0-0.3,0.1c-0.1,0.1-0.1,0.2,0,0.3c-0.1-0.1,0-0.2,0.1-0.2
			C350.1,57.2,350.1,57.1,350,57 M350.1,56.8c-0.1,0-0.1,0.1,0,0.2c0.2,0,0.2-0.1,0.2-0.4C350.2,56.8,350.2,56.8,350.1,56.8
			 M350.2,56.6L350.2,56.6c0.2,0,0.3,0,0.3-0.1c0-0.1-0.1-0.1-0.2-0.1L350.2,56.6z M350.7,56.1c0.2,0.1,0.3,0,0.3-0.1
			c0-0.1,0.1-0.2,0.1-0.4C350.9,55.8,350.8,56,350.7,56.1 M351.9,54.8C351.8,54.8,351.8,54.8,351.9,54.8
			C351.9,54.9,351.9,54.8,351.9,54.8 M352.6,53.8c-0.3,0.3-0.4,0.6-0.3,0.9c0.1-0.4,0.3-0.7,0.6-0.9c0.2-0.2,0.4-0.4,0.6-0.7
			C353.2,53.2,352.9,53.4,352.6,53.8 M353.4,53L353.4,53l0.1-0.2C353.4,52.8,353.4,52.9,353.4,53 M353.7,52.7c0.1-0.1,0.1-0.2,0-0.2
			c-0.1,0.1-0.1,0.1-0.2,0.1c-0.1,0-0.1,0.1,0,0.2C353.5,52.8,353.6,52.8,353.7,52.7 M354,52c0,0.1,0,0.1-0.1,0.2
			c-0.1,0.1-0.1,0.2,0,0.3c0.1-0.1,0.1-0.2,0.1-0.2C354.1,52.2,354.1,52.1,354,52L354,52z M354.3,51.9c-0.1-0.1-0.1-0.1-0.1,0.1
			C354.3,52.1,354.4,52,354.3,51.9 M354.5,51.6c0-0.1,0-0.1-0.1,0C354.5,51.7,354.5,51.7,354.5,51.6 M354.6,51.3c0,0,0-0.1,0-0.2
			C354.6,51.3,354.6,51.3,354.6,51.3 M340.6,51.2c-0.2,0-0.3,0-0.2,0.1c0.1,0.1,0.1,0.2,0.1,0.3C340.6,51.6,340.6,51.5,340.6,51.2
			 M355,51.2c0-0.1-0.1-0.2-0.3-0.2v0.2H355z M355,50.8C354.9,50.9,354.9,50.9,355,50.8l0.1-0.2C355.1,50.7,355,50.8,355,50.8
			 M340.2,50.7c0,0.1-0.1,0.2-0.1,0.3c0.1,0,0.2,0,0.2-0.1c0-0.1,0.1-0.2,0.2-0.3C340.3,50.6,340.2,50.6,340.2,50.7 M340.2,50
			c-0.1,0.1,0,0.2,0.1,0.3c0-0.1,0-0.2,0.1-0.3c0.1-0.2,0-0.2-0.1-0.2C340.3,49.8,340.3,49.9,340.2,50 M355.6,49.8
			c-0.2,0.2-0.2,0.3,0,0.3c0.2-0.2,0.3-0.4,0.5-0.6C355.9,49.5,355.8,49.6,355.6,49.8 M356.1,49.2v0.2
			C356.1,49.4,356.2,49.3,356.1,49.2L356.1,49.2z M356.5,48.9c0.1-0.1,0.2-0.2,0.3-0.4c-0.2-0.1-0.4-0.1-0.4,0.1
			c0,0.2-0.1,0.4-0.2,0.5C356.3,49.1,356.4,49.1,356.5,48.9 M357.1,48.1c-0.1-0.1-0.2,0-0.2,0.1C357.2,48.2,357.2,48.1,357.1,48.1
			 M357.3,47.9c0-0.2,0-0.2-0.1,0C357.2,48,357.3,48,357.3,47.9 M357.6,47.3C357.7,47.3,357.7,47.2,357.6,47.3
			C357.6,47.2,357.6,47.3,357.6,47.3 M357.7,47.2c0.1,0,0.1,0,0.2-0.1c0.1-0.1,0.1-0.2,0-0.3c0,0.1-0.1,0.2-0.2,0.2
			C357.6,47,357.6,47,357.7,47.2 M358.3,46.2c-0.1,0.2-0.1,0.2,0,0.2c0.1-0.1,0.2-0.2,0.3-0.5C358.4,46,358.3,46,358.3,46.2
			 M358.9,45.6c-0.1,0-0.2,0.1-0.2,0.2C358.8,45.8,358.9,45.7,358.9,45.6 M358.9,45.3c-0.1,0.1-0.1,0.2-0.1,0.3
			c0.2-0.1,0.3-0.2,0.3-0.6C359.1,45.2,359,45.3,358.9,45.3 M359.2,45C359.2,45,359.1,45,359.2,45C359.3,45,359.3,45,359.2,45
			 M341.2,45.6c0-0.3,0.1-0.7,0.2-1.2c-0.2,0.2-0.3,0.6-0.4,1.1c-0.1,0.5-0.1,0.9-0.1,1.3C341,46.4,341.2,46,341.2,45.6 M359.5,44.6
			c-0.2,0.1-0.1,0.2,0,0.3c0-0.1,0.1-0.2,0.2-0.3c0.1-0.1,0.1-0.2-0.1-0.3C359.7,44.4,359.6,44.5,359.5,44.6 M340.5,49.1
			c-0.1-0.1-0.1-0.2,0-0.2c0.1,0,0.1,0,0.1,0c0,0,0,0,0.1,0C340.7,49.1,340.6,49.2,340.5,49.1 M340.6,48.2c0.1-0.2,0.1-0.4,0.2-0.6
			c0.1,0.2,0.2,0.4,0.1,0.6c-0.1,0.2-0.1,0.4-0.2,0.5C340.6,48.6,340.5,48.5,340.6,48.2 M340.4,48.7c0,0.6,0.1,1.2,0.1,1.9
			c0.2-1.2,0.5-2.3,0.7-3.4c0.2-1.1,0.4-2.2,0.7-3.2c-0.4,0.5-0.6,1.1-0.6,1.7c0,0.7-0.2,1.3-0.6,1.9c-0.1-0.2-0.1-0.3,0-0.4
			c0.1-0.1,0.1-0.2,0.1-0.3C340.6,47.5,340.4,48.1,340.4,48.7 M359.8,44.2c0.2,0,0.3-0.1,0.3-0.2c0-0.1,0-0.2,0.1-0.3
			C359.9,43.9,359.8,44,359.8,44.2 M360.5,43.2h0.2V43h-0.2V43.2z M361.2,42.3c-0.1-0.1-0.2,0-0.3,0.2c-0.1,0.2-0.1,0.3,0,0.3
			c0-0.1,0-0.2,0.1-0.2C361.1,42.5,361.2,42.4,361.2,42.3 M361.3,42.2C361.1,42.3,361.1,42.4,361.3,42.2
			C361.4,42.1,361.4,42,361.3,42.2 M361.9,41.2c0,0.1,0,0.1,0,0.2C361.9,41.4,361.9,41.3,361.9,41.2
			C361.9,41.1,361.8,41.2,361.9,41.2 M362.3,40.8c0.1,0,0.1-0.1,0-0.3c-0.1-0.1-0.2,0-0.2,0.2c0,0.2,0.1,0.3,0.2,0.2
			C362.2,40.9,362.2,40.8,362.3,40.8 M362.3,40.5c0.1,0,0.2,0,0.2-0.1c0-0.1,0-0.1,0.1-0.2C362.4,40.2,362.3,40.3,362.3,40.5
			 M362.8,39.6c-0.2,0.1-0.2,0.2,0.1,0.4c0.1-0.1,0.1-0.2,0.1-0.4c0-0.1,0.1-0.2,0.2-0.4C363.2,39.3,363,39.4,362.8,39.6
			 M363.5,39.1c0-0.2,0-0.2-0.1-0.2c0,0.1,0,0.2,0,0.2c0,0,0,0,0,0.1C363.4,39.3,363.5,39.3,363.5,39.1 M365.2,38.9
			c0.1-0.1,0.1-0.1,0-0.1C365.1,38.9,365.1,39,365.2,38.9 M340.8,58.6c0.1-0.2,0-0.3-0.1-0.3c0.1-0.1,0.1-0.1,0.2,0.1
			c0.1,0.2,0.1,0.3,0,0.4C340.7,58.8,340.7,58.8,340.8,58.6 M340.7,58v-0.4c0.1-0.1,0.2,0,0.1,0.2c-0.1,0.2,0,0.2,0.1,0.2
			C340.7,58.1,340.7,58.1,340.7,58 M340.5,57.3c0.1-0.1,0.2,0,0.2,0.3c-0.1,0-0.1,0-0.1,0c0,0,0,0-0.1,0V57.3z M340.5,56
			c0.1,0.1,0.1,0.2,0.1,0.6c0,0.3,0,0.5-0.1,0.6V56z M340.1,55.5c0-0.1,0-0.2,0-0.2c0.1,0,0.2,0.1,0.2,0.3
			C340.1,55.6,340,55.6,340.1,55.5 M340.5,55.9c-0.1-0.2-0.2-0.3-0.1-0.5c0.1-0.1,0.1-0.3,0.1-0.6c0.1,0.1,0.2,0.3,0.1,0.5
			C340.5,55.6,340.5,55.8,340.5,55.9 M354.7,52.1C354.9,52,354.9,52.1,354.7,52.1C354.6,52.3,354.6,52.3,354.7,52.1 M358.9,46.7
			c-0.1,0-0.2-0.1-0.2-0.3C358.8,46.4,358.9,46.5,358.9,46.7 M364.4,39.9c0.1-0.1,0.2-0.1,0.1,0C364.5,40.1,364.5,40.1,364.4,39.9
			 M363.4,39.8c0-0.1,0.1-0.1,0.2-0.1C363.6,39.8,363.5,39.8,363.4,39.8 M342.8,39.7c0-0.1,0.1-0.2,0.1-0.3c0.1,0.1,0.1,0.2,0,0.3
			c-0.1,0.1-0.1,0.2-0.1,0.2h-0.1v0.4v0.1c-0.1,0-0.2,0-0.2-0.1c0-0.1,0.1-0.2,0.2-0.3C342.7,39.9,342.7,39.8,342.8,39.7
			 M343.2,39.4c0.1,0,0.1-0.1,0-0.2c0.1,0,0.2,0,0.1,0.1c-0.1,0.1-0.1,0.2-0.1,0.3C343.1,39.5,343.1,39.5,343.2,39.4 M343,39.1
			c0-0.1,0-0.2,0-0.2c0,0,0-0.1,0-0.1c0.1-0.1,0.2,0,0.1,0.2C343.2,39.1,343.1,39.2,343,39.1 M343.5,37.6c0.1-0.1,0.1-0.2,0.1-0.4
			c0.2,0.1,0.2,0.2,0.1,0.4c-0.1,0.1-0.1,0.2-0.1,0.4C343.4,37.9,343.4,37.7,343.5,37.6 M364.4,37.6c0.1-0.1,0.2-0.3,0.3-0.5
			c0.1,0.4-0.1,0.8-0.6,1C364.2,37.9,364.3,37.7,364.4,37.6 M344.4,35.4C344.4,35.3,344.4,35.3,344.4,35.4
			C344.5,35.4,344.4,35.4,344.4,35.4 M360.6,43.6c-0.7,0.7-1.2,1.6-1.6,2.7c-0.1-0.1-0.2-0.2-0.2-0.1c0,0.1-0.1,0.1-0.1,0.1
			c-1.6,2.3-3.2,4.5-4.9,6.8c-1.7,2.2-3.5,4.2-5.6,6c0.2-0.2,0.4-0.4,0.5-0.6c0.2-0.2,0.3-0.3,0.4-0.5c-0.5,0.4-1,0.8-1.4,1.3
			c-0.4,0.5-0.9,0.9-1.4,1.2c-0.3-1.2-0.4-2.5-0.4-3.9c0-1.4,0.1-2.8,0.2-4.3c0.1-0.4,0.2-1,0.3-1.8c0.1-0.8,0.2-1.4,0.3-1.9
			c0.1-0.7,0.2-1.5,0.4-2.2c0.2-0.7,0.4-1.5,0.5-2.1c0.1-0.3,0.2-0.7,0.2-1.1c0-0.4,0.1-0.8,0.2-1.2c0.1-0.1,0.1-0.2,0.2-0.2
			c0.1,0,0.2-0.1,0.2-0.2c0.1-0.5,0.2-1,0.2-1.6c0-0.6,0.1-1.1,0.2-1.7c0.1-0.4,0.2-0.8,0.3-1.3c0.1-0.5,0.2-0.9,0.4-1.3
			c-0.3-0.4-0.7-0.6-1.2-0.7c-0.5-0.1-1-0.2-1.5-0.2c-0.6,0-1.1,0-1.6,0.1c-0.5,0.1-0.9,0.2-1.3,0.2c-0.1,0.2,0,0.3,0.1,0.3
			c0.2,0,0.2,0.1,0,0.2c-0.1,0.1-0.2,0.1-0.3,0.2c-0.1,0.1-0.2,0.2-0.3,0.2c-0.3,1.4-0.7,2.8-1.3,4.1c-0.5,1.3-0.8,2.7-1,4.2
			c0.3-0.5,0.5-1.1,0.6-1.8c0.1-0.7,0.2-1.3,0.6-1.8c0,0.5-0.1,0.9-0.3,1.3c-0.2,0.4-0.2,0.8,0,1.2c0.1-0.3,0.2-0.8,0.3-1.5
			c0.1-0.7,0.3-1.2,0.6-1.5c-0.1,0.7-0.3,1.3-0.5,1.9c-0.2,0.6-0.3,1.2-0.3,2c-0.6,1.4-1,3.2-1.2,5.2c-0.2,2-0.4,3.9-0.6,5.5
			c-0.1-0.5-0.1-1,0-1.6c0.1-0.6,0.1-1.1,0-1.5c-0.2,0.1-0.4,0-0.5-0.1c0,0.1,0,0.2,0,0.4c0,0.1,0,0.2,0,0.3c0.1,0.1,0.2,0,0.1-0.2
			c-0.1-0.2,0-0.2,0.2-0.1c-0.1,0.4-0.2,0.9-0.1,1.4c0,0.5,0,1-0.1,1.4c0.1-0.5,0.1-0.9,0-1.3c0-0.3,0-0.7,0-1.1
			c-0.1,0.4-0.2,0.9-0.3,1.6c-0.1,0.7,0,1.3,0.1,1.9c0.1,1.6,0.5,2.8,1.1,3.7c0.6,0.9,1.5,1.7,2.8,2.4c0.1,0.1,0.2,0.2,0.3,0.4
			c0.1,0.1,0.2,0.2,0.3,0.3c0.3,0.2,0.7,0.3,1.2,0.4c0.5,0.1,0.8,0.2,1.2,0.4c1.1,0,2-0.2,2.8-0.5c0.8-0.3,1.6-0.7,2.3-1.2
			c0.1-0.4,0.2-0.7,0.5-0.9c0.3-0.2,0.5-0.4,0.6-0.7c0.2,0,0.3,0,0.4,0.1c0.1,0,0.2-0.1,0.1-0.3c0-0.2,0.1-0.3,0.3-0.1
			c0.1,0,0.1-0.1,0.1-0.2c0-0.2,0.1-0.2,0.2,0c0-0.2,0-0.3,0.1-0.4c0.7-0.8,1.3-1.6,2-2.4c0.7-0.8,1.3-1.5,1.9-2.3
			c0-0.2,0-0.3-0.1-0.4c-0.1-0.1,0-0.1,0.1-0.2c0,0.1,0.1,0.1,0.4,0.1c0.2-0.8,0.6-1.5,1.1-2c0.5-0.6,0.8-1.2,1-1.9h0.3
			c-0.1-0.2,0-0.4,0.1-0.5c0.1-0.1,0.2-0.2,0.2-0.4c0.1,0.1,0.2,0.1,0.3,0c0.3-0.5,0.5-0.9,0.6-1.3c0.1-0.4,0.3-0.8,0.6-1.3
			c-0.1-0.1-0.1-0.1,0-0.2c0.1-0.1,0.1,0,0,0.2h0.2c0.1-0.7,0.3-1.4,0.6-2.2c0.3-0.8,0.6-1.5,0.9-2.2c0,0.1,0,0.2-0.1,0.3
			c-0.1,0.1-0.1,0-0.1-0.1c0.3-0.5,0.5-1,0.6-1.5c0.1-0.5,0.3-1.1,0.6-1.7c-0.1,0.1-0.1,0.2-0.1,0.3c0,0.1-0.1,0.1-0.1,0
			c0.1-0.1,0.1-0.3,0-0.4c-0.1-0.2,0-0.3,0.1-0.3c-0.1-0.4,0-0.7,0.1-0.9c0.2-0.2,0.2-0.5,0-0.7c-0.1,0.2-0.2,0.3-0.3,0.3
			c-0.1-0.1-0.2-0.2-0.5-0.3c-0.2,0.3-0.4,0.6-0.6,0.9c-0.2,0.3-0.4,0.6-0.4,0.9c0.1-0.1,0.1-0.2,0.2-0.4c0.1-0.2,0.2-0.3,0.2-0.1
			c-0.2,0.6-0.4,1.1-0.8,1.5c-0.3,0.4-0.7,0.8-1,1.2C361.8,42,361.2,42.9,360.6,43.6 M352.7,22.9c0.1-0.4,0.1-0.8,0.2-1.3
			c-0.5-1.1-1.3-1.9-2.3-2.2c-1-0.1-1.7,0.1-2.2,0.5c-0.5,0.4-1.1,0.6-1.8,0.7c0.1,1.1,0.1,2.1,0.2,3.2c0.1,1.1,0.3,2,0.5,3
			c0.6,0,1.1-0.1,1.4-0.3c0.3-0.2,0.8-0.3,1.3-0.3c0.3-0.2,0.6-0.5,0.9-0.7c0.3-0.2,0.6-0.6,0.9-1c0.1-0.1,0.2-0.1,0.2,0
			c0,0.1,0.1,0.1,0.2,0C352.6,23.7,352.7,23.3,352.7,22.9 M326.5,57.4c-0.1,0.1-0.1,0.1,0.1,0.1C326.6,57.4,326.6,57.3,326.5,57.4
			 M326.6,53.8c0-0.2-0.1-0.2-0.2,0C326.5,53.9,326.6,53.9,326.6,53.8 M327.1,49.7C327.1,49.7,327,49.7,327.1,49.7l-0.1,0.2
			C327.1,50,327.1,50,327.1,49.7c0.1-0.1,0.1-0.2,0-0.2C327.1,49.6,327.1,49.7,327.1,49.7 M327.3,46.1c0.1,0.2,0.1,0.3,0,0.4
			c-0.1,0.1,0,0.1,0.1,0.1c0.1-0.1,0.1-0.2,0-0.4C327.4,46.1,327.4,46,327.3,46.1 M327.3,45.4c0.1,0.1,0.2,0,0.2-0.2
			c-0.1,0-0.1-0.1-0.2-0.2V45.4z M327.5,43.7c0,0.1,0.1,0.1,0.2,0.1v-0.2C327.6,43.6,327.5,43.7,327.5,43.7 M327.8,43.6
			c0-0.3,0-0.5-0.1-0.5C327.6,43.3,327.6,43.5,327.8,43.6L327.8,43.6z M328.9,34.6c0,0.1,0,0.1,0,0.1c0-0.1,0-0.1,0.1-0.2
			c0.1-0.1,0-0.1-0.2-0.1C329,34.4,329,34.5,328.9,34.6 M329.1,34.1c0.1,0.1,0.1,0.1,0.1-0.2C329.1,33.9,329,34,329.1,34.1
			 M329.1,33.5c0,0,0,0.1,0,0.2c0.1,0,0.2-0.1,0.3-0.3c0.1-0.2,0-0.2-0.2-0.2C329.2,33.4,329.2,33.5,329.1,33.5 M329.3,32.7
			c-0.1,0.2,0,0.3,0.2,0.3c0-0.2,0-0.3,0-0.3c0,0,0-0.1,0-0.1C329.4,32.5,329.3,32.5,329.3,32.7 M329.8,30.1c0.1,0,0.1-0.1,0.1-0.2
			c-0.1,0-0.2,0.1-0.3,0.2c-0.1,0.1,0,0.2,0.1,0.2C329.7,30.2,329.8,30.2,329.8,30.1 M330.3,27.4c0.1,0.1,0.1,0,0.1-0.2
			C330.3,27.2,330.2,27.3,330.3,27.4 M327,61c0,0.2,0,0.1-0.1,0C326.9,60.9,327,60.9,327,61 M326.7,60.1
			C326.7,60,326.7,60,326.7,60.1c0-0.1,0-0.1,0-0.1C326.7,60,326.8,60,326.7,60.1C326.8,60.2,326.7,60.2,326.7,60.1 M327.2,59.6
			c-0.1,0-0.1-0.1,0-0.3C327.4,59.5,327.4,59.6,327.2,59.6 M327.2,58.8C327.2,59,327.2,59,327.2,58.8
			C327.2,58.6,327.2,58.6,327.2,58.8 M326.7,58.1c0-0.1,0-0.2,0-0.3c0.1,0.1,0.2,0.3,0.1,0.5C326.7,58.2,326.7,58.2,326.7,58.1
			 M327.1,57.7c-0.1-0.1-0.1-0.1,0-0.2c0.1-0.1,0.1-0.2,0-0.2c0.1,0,0.2,0.1,0.1,0.2C327.2,57.5,327.2,57.6,327.1,57.7 M327.1,56.5
			L327.1,56.5l0.1,0.2h-0.1V56.5z M327.1,56.1c-0.1-0.1-0.1-0.2,0-0.2c0.1,0,0.1-0.1,0-0.3c0.1,0,0.2,0.1,0.2,0.3
			C327.3,56.2,327.3,56.2,327.1,56.1 M327,55c0.1-0.2,0.1-0.4,0.1-0.7c0.2,0.1,0.2,0.3,0.2,0.6c-0.1,0.3-0.1,0.5-0.2,0.6
			C327,55.4,327,55.2,327,55 M327.3,53.6c0,0.1-0.1,0.1-0.2,0.1C327.1,53.6,327.2,53.6,327.3,53.6 M327.2,52.8
			c0-0.2,0.1-0.4,0.2-0.6c0.1,0.1,0.1,0.3,0,0.5c-0.1,0.2-0.1,0.4-0.1,0.6C327.2,53.3,327.1,53.1,327.2,52.8 M327.3,51.6
			c0.1-0.2,0.1-0.5,0.2-0.6c0.1,0.2,0.2,0.4,0.1,0.6c-0.1,0.2-0.1,0.4-0.2,0.6C327.3,52.1,327.3,51.9,327.3,51.6 M327.4,50.6
			c0.1,0,0.1-0.1,0.1-0.2c0.1,0,0.2,0.1,0.2,0.3c0,0.2-0.1,0.2-0.3,0.2C327.4,50.7,327.4,50.6,327.4,50.6 M327.5,49.8
			c0-0.2,0-0.3,0-0.4c0.2,0.1,0.3,0.2,0.2,0.3c0,0.1,0,0.3,0,0.5C327.5,50.1,327.4,50,327.5,49.8 M327.3,49.2
			C327.3,49.3,327.3,49.3,327.3,49.2C327.3,49,327.3,49,327.3,49.2 M327.7,47.3c0.1-0.2,0.1-0.5,0.1-0.7c0.2,0.1,0.2,0.3,0,0.6
			c-0.2,0.2-0.2,0.6,0,1h-0.1c0.1,0.1,0.1,0.2,0,0.4c0,0.1,0,0.3,0,0.5c-0.2,0-0.2-0.1-0.2-0.4c0.1-0.3,0.1-0.4,0.2-0.4
			C327.7,47.8,327.6,47.5,327.7,47.3 M327.9,45c0.1-0.4,0.2-0.9,0.3-1.4c0.1,0.5,0,1-0.1,1.4c-0.1,0.4-0.2,0.9-0.2,1.4
			C327.8,45.9,327.8,45.5,327.9,45 M328.2,43c0.1-0.3,0.2-0.6,0.2-0.7c0.2,0.1,0.3,0.3,0.1,0.6c-0.2,0.2-0.2,0.5-0.1,0.8
			C328.2,43.5,328.1,43.3,328.2,43 M328,41.9h0.3c-0.1,0.1-0.2,0.3-0.1,0.5c0.1,0.2,0,0.3-0.3,0.4C327.9,42.4,327.9,42.1,328,41.9
			 M328,41.4c0.1-0.2,0.2-0.2,0.4,0c-0.1,0.1-0.2,0.1-0.1,0.1c0.1,0,0.1,0.1,0.1,0.2c-0.2,0-0.3,0-0.3,0.1
			C327.9,41.6,327.9,41.5,328,41.4 M328.4,41.7c0.1-0.2,0.2-0.4,0.1-0.6c0.2,0.1,0.2,0.3,0.1,0.5c-0.1,0.2-0.2,0.4-0.2,0.5
			C328.3,42,328.3,41.9,328.4,41.7 M328.3,40L328.3,40l0.1,0.3h-0.1V40z M328.3,39c0-0.1,0-0.2,0.1-0.3c0.1,0.1,0.2,0.3,0.1,0.5
			C328.4,39.2,328.3,39.1,328.3,39 M328.7,37.4C328.5,37.6,328.5,37.6,328.7,37.4C328.8,37.3,328.8,37.3,328.7,37.4 M328.7,36.9
			c0.1,0,0.1-0.1,0.1-0.3c0.1,0,0.2,0.1,0.1,0.3c0,0.2-0.1,0.3-0.3,0.3C328.6,37,328.6,37,328.7,36.9 M328.8,36.1
			c-0.1-0.1,0-0.2,0.2-0.3c0,0.4-0.1,0.7-0.2,0.7C328.9,36.4,328.9,36.3,328.8,36.1 M329.6,33.9c0.1-0.2,0.2-0.4,0.3-0.6
			c0,0.2,0,0.4,0,0.6c0,0.2-0.1,0.3-0.2,0.5c-0.1,1.2-0.3,2.3-0.5,3.4c-0.2,1.1-0.4,2.2-0.6,3.2c0-1.2,0.1-2.4,0.3-3.4
			c0.2-1,0.4-2.1,0.7-3.3C329.6,34.3,329.6,34.2,329.6,33.9 M329.7,32.8h0.3V33h-0.3V32.8z M329.6,31.6L329.6,31.6l0.1,0.4h-0.1
			V31.6z M329.9,30.7c-0.1,0-0.1,0,0-0.2C330,30.6,330,30.7,329.9,30.7 M330.1,30.9c0-0.6,0.2-1.1,0.4-1.5c-0.1,0.4-0.1,0.9-0.1,1.6
			c0,0.7-0.2,1.2-0.5,1.4C330,32,330.1,31.5,330.1,30.9 M330.6,28.9c0-0.2,0-0.3,0-0.4c0.2,0,0.2,0.1,0.2,0.4
			c-0.1,0.3-0.2,0.4-0.3,0.4C330.6,29.2,330.6,29.1,330.6,28.9 M330.1,28.9c0-0.2,0.1-0.4,0.2-0.6c0.1,0.1,0.1,0.4,0,0.7
			c-0.1,0.4-0.2,0.6-0.3,0.6C330.1,29.4,330.1,29.2,330.1,28.9 M330.8,27.6c0.1,0.1,0.2,0.2,0.1,0.5c0,0.3-0.1,0.4-0.3,0.4
			C330.8,28,330.8,27.7,330.8,27.6 M330.9,27.2C331,27.2,331,27.2,330.9,27.2c0.2-0.2,0.2-0.1,0.2,0.2h-0.3
			C330.8,27.3,330.9,27.2,330.9,27.2 M331,26.9l0.1-0.2c0.1,0,0.1,0.1,0.1,0.2c0,0.2-0.1,0.2-0.2,0.1V26.9z M330.7,25.6
			c0-0.1,0.1-0.1,0.3-0.1C331,25.5,330.9,25.6,330.7,25.6 M331.3,25.2c0.2,0,0.2,0.1,0.1,0.4c-0.1,0.3-0.2,0.4-0.3,0.4
			C331.2,25.7,331.3,25.4,331.3,25.2 M331,24.9L331,24.9L331,24.9L331,24.9L331,24.9z M331.3,23.8C331.3,24,331.3,24,331.3,23.8
			C331.3,23.7,331.3,23.7,331.3,23.8 M331.3,23.1h0.3v0.2h-0.3V23.1z M331.8,23.1c0.2,0,0.2,0.1,0.1,0.4c-0.1,0.2-0.2,0.4-0.3,0.6
			C331.7,23.6,331.8,23.3,331.8,23.1 M331.9,22.7L331.9,22.7L331.9,22.7L331.9,22.7L331.9,22.7z M332.1,21.6h0.2v0.3h-0.2V21.6z
			 M326.5,58.6c-0.1,0.3,0,0.7,0.1,1.1c0,0.1-0.1,0.1-0.3,0.1c0.2,0.3,0.4,0.7,0.3,1.2c0,0.5,0,0.9,0.2,1.2
			c-0.1,0.7,0.1,1.3,0.4,1.9c0.3,0.6,0.7,1.1,1,1.6c0.6,0.7,1.4,1.2,2.3,1.5c0.9,0.3,1.9,0.7,2.8,1c0,0.1,0.1,0.1,0.2,0
			c0.1,0,0.2,0,0.2,0.1c0.7,0,1.4-0.1,2-0.2s1.2-0.4,1.7-0.8c-0.1,0-0.2,0-0.2-0.1c0.1-0.1,0.3-0.2,0.5-0.3c0.2-0.1,0.3-0.2,0.3-0.6
			c-0.1-0.1-0.2-0.1-0.2,0s0,0.1-0.1,0c0.1-0.1,0.1-0.2,0.2-0.2c0.1,0,0.1-0.1,0.1-0.2h-0.3c0.2-0.5,0.3-0.9,0.1-1.3
			c-0.2-0.4-0.1-0.7,0.2-1c-0.1-0.1-0.2-0.1-0.2,0c0,0.2,0,0.2,0,0c0.2-0.2,0.3-0.5,0.1-0.7c-0.2-0.2-0.2-0.5,0-0.7
			c-0.1,0-0.1,0-0.1-0.1c-0.7,0.5-1.3,1.1-1.8,1.8c-0.4,0.7-1.1,1.2-1.9,1.5c-0.4-0.9-0.7-2-0.8-3.2c-0.1-1.2-0.2-2.4-0.1-3.5
			c0-1.2,0.1-2.3,0.1-3.5c0.1-1.2,0.1-2.2,0.1-3.2c0.3-0.4,0.4-0.9,0.4-1.7c-0.1-0.8,0-1.3,0.3-1.7c-0.1-0.9-0.1-1.8,0.2-2.7
			c0.2-0.9,0.4-1.8,0.4-2.7c0.3-0.9,0.5-1.8,0.5-2.7c0-1,0.2-1.8,0.4-2.5c-0.1,0-0.1-0.1-0.1-0.3c0.7-2.9,1.3-5.9,1.9-9
			c0.6-3.1,1-6.2,1.3-9.3c0.2-0.6,0.4-1.2,0.3-2c0-0.8-0.1-1.6-0.1-2.4c-0.2-0.1-0.3-0.2-0.3-0.3c0-0.2-0.1-0.3-0.2-0.4
			c-0.7-0.1-1.5-0.3-2.4-0.5c-0.9-0.2-1.7-0.1-2.5,0.3c-0.2-0.2-0.4-0.3-0.6-0.3c0.2,0.3,0.2,0.6,0,1c-0.2,0.4-0.2,0.7,0,1.1
			c-0.3,0.5-0.5,1.1-0.5,1.7c0,0.7-0.2,1.3-0.4,1.8c-0.1,0.1-0.1,0.2,0,0.3c0,0.1,0,0.2,0,0.3c-0.1,0-0.2,0.1-0.2,0.4
			c0,0.3,0,0.4,0,0.5h0.2h-0.2c-0.1,0.2-0.2,0.4-0.2,0.6c0,0.2,0,0.3,0.1,0.5c-0.1,0-0.1,0-0.2,0c-0.1,0-0.1,0-0.2,0
			c-0.1,0.1,0,0.2,0.1,0.2c0.1,0,0.2,0.1,0.2,0.3c-0.3,0.2-0.5,0.6-0.5,0.9c0,0.4,0,0.7-0.1,1c0-0.2,0.1-0.3,0.3-0.3
			c-0.1,0.1-0.1,0.2,0,0.3c0,0.1,0,0.2-0.1,0.2H331c-0.1,0-0.1,0-0.1,0c0,0,0,0-0.1,0c0,0.3,0,0.6-0.1,0.9c-0.1,0.3-0.1,0.6-0.2,0.9
			c0.1,0.1,0.2,0,0.1-0.1c0-0.2,0-0.2,0.1-0.1c-0.1,0.1-0.1,0.3,0,0.5c0,0.2,0,0.4-0.1,0.4c-0.1-0.1-0.1-0.2,0-0.3
			c0-0.1,0-0.1-0.1,0v0.5l0.2,0.3c-0.1,0.1-0.1,0.2-0.2,0.2c-0.1,0-0.2,0-0.2,0.1c0.1,0.1,0.1,0.1,0.1,0.2s0.1,0.1,0.2,0.1
			c-0.3,0.1-0.5,0.4-0.5,0.7c0,0.4-0.1,0.7-0.3,1c0.2-0.1,0.4,0.1,0.4,0.5h-0.4c-0.1,0.1-0.1,0.3-0.1,0.4c0,0.2,0.1,0.3,0.3,0.3
			c-0.1,0.1-0.2,0.2-0.2,0.1c0-0.1-0.1-0.1-0.1,0c0,0.3-0.1,0.7-0.2,1h0.3c0,0.1,0,0.1,0,0.2c0,0.1,0,0.1,0,0.2
			c0.1,0,0.2,0.1,0.1,0.2c0,0.2-0.1,0.2-0.2,0.2c0.1,0.1,0.1,0.2,0,0.4c0,0.2-0.1,0.4-0.3,0.5c0.1,0.1,0.2,0.3,0.1,0.7
			c-0.1,0.3-0.2,0.5-0.3,0.6c0-0.2,0-0.4-0.1-0.4c0,0.1,0,0.3-0.1,0.4c-0.1,0.2,0,0.3,0.1,0.3c0-0.2,0.1-0.3,0.2-0.3v0.3h-0.2
			c-0.1,0.4-0.3,0.8-0.4,1.2c-0.2,0.4,0,0.7,0.3,1c-0.4,0-0.5,0.1-0.5,0.4c0.1,0.1,0.2,0,0.2-0.1c0-0.1,0-0.1,0.1,0
			c0,0.1,0,0.2,0,0.4c0,0.1,0,0.2-0.2,0.3c-0.1-0.1-0.1-0.2,0-0.3c0.1-0.1,0.1-0.2,0-0.2c-0.2,0.3-0.2,0.6-0.1,1
			c0.1,0.3,0.1,0.6,0,0.7c0-0.1-0.1-0.2-0.2-0.2c0.1,0.1,0.1,0.2,0,0.2c-0.1,0-0.2,0.1-0.2,0.2c0.2,0,0.3,0.1,0.1,0.3
			c0.1,0.1,0.2,0.1,0.2,0c0-0.1,0.1-0.1,0.1,0c0,0.1-0.1,0.2-0.2,0.2c-0.1,0-0.2,0.1-0.2,0.2c0.1,0.1,0.2,0.1,0.2,0
			c0-0.1,0.1,0,0.2,0.1c-0.3,0.1-0.5,0.4-0.7,0.9c-0.2,0.5-0.1,0.9,0.2,1.1c-0.1,0.1-0.2,0.4-0.1,0.7c0.1,0.3,0,0.6-0.2,0.7
			c0-0.2-0.1-0.3-0.2-0.3c0,0.4-0.1,0.7-0.2,0.8c0.2,0,0.3,0,0.2-0.1c0-0.1,0-0.2,0.1-0.3c0.1,0.5,0.1,1,0,1.6c0,0.6-0.2,1-0.4,1.2
			c0-0.1,0-0.2-0.1-0.3c-0.1,0.2-0.1,0.5,0.1,0.6c0-0.1,0-0.1,0.1-0.1c0,0.1,0,0.2,0.1,0.3c0.1,0.2,0,0.2-0.3,0.2
			c0.1-0.1,0.1-0.1,0.1-0.2c0-0.1-0.1-0.1-0.2-0.1v0.8c0.1-0.1,0.2-0.1,0.3,0.1c0.1,0.2,0,0.3-0.1,0.3c-0.1-0.1-0.1-0.1-0.1-0.2
			c0-0.1,0-0.1-0.1-0.2c-0.1,0.2-0.1,0.7,0.2,1.2c-0.1,0.1-0.1,0.2-0.1,0.3c0,0.1-0.1,0.2-0.2,0.3c0.2,0.1,0.4,0.2,0.3,0.5
			c0,0.2-0.1,0.5-0.1,0.6c-0.2-0.2-0.2-0.6,0-0.9c-0.3,0-0.4,0.1-0.3,0.3c0.1,0.2,0.1,0.4-0.1,0.5c0.1,0.1,0.2,0.2,0.3,0.2
			c0.2,0,0.2,0.1,0,0.2c-0.1,0-0.2,0-0.2,0c0,0,0,0-0.1,0c0.1,0.1,0,0.2-0.2,0.2c-0.2,0-0.2,0.1,0,0.2c0.1-0.1,0.1-0.2,0.2-0.1
			c0.1,0.1,0.2,0.1,0.3,0.2c-0.1,0.1-0.2,0.2-0.2,0.3c0,0.1,0,0.1-0.1,0.2c-0.1-0.1-0.1-0.1,0-0.2c0.1-0.1,0.1-0.1-0.2-0.1
			c-0.1,0.2-0.1,0.5,0,0.7c0.1,0.2,0.1,0.5,0.2,0.7c-0.1-0.1-0.2-0.1-0.1,0c0,0.1,0,0.2,0,0.2c0.1,0.1,0.1,0.1,0.1,0
			c0-0.1,0-0.1,0,0c-0.1,0.2-0.2,0.5-0.3,0.7c-0.1,0.2,0,0.3,0.2,0.5c-0.2,0.1-0.4,0.2-0.4,0.4c0,0.2,0.1,0.4,0.2,0.6
			c0.1,0,0.1-0.1,0-0.2c-0.1-0.2,0-0.2,0.2-0.2c-0.1,0.1-0.1,0.3-0.1,0.4c0,0.2-0.1,0.2-0.2,0.2c-0.1,0.1-0.1,0.2,0,0.2
			c0.2,0,0.2,0.1,0.1,0.3c-0.1,0-0.1,0-0.1-0.1c0-0.1-0.1,0-0.2,0.1c0.1,0,0.1,0,0,0.1c-0.1,0.1-0.1,0.2,0,0.3c0,0.1,0.1,0.1,0.2,0
			c0.1,0,0.2,0,0.2,0.1c-0.2,0-0.3,0-0.1,0.1c0.2,0.1,0.2,0.2,0.1,0.3h-0.2C326.6,57.9,326.6,58.3,326.5,58.6 M304.4,48.7
			C304.4,48.7,304.4,48.7,304.4,48.7C304.3,48.7,304.3,48.7,304.4,48.7L304.4,48.7z M301.3,52.3c0,0.1,0,0.1-0.1,0.2h-0.1
			C301.2,52.3,301.2,52.3,301.3,52.3L301.3,52.3z M280.2,51.5c0,0.2-0.1,0.2-0.2,0C280.1,51.3,280.2,51.3,280.2,51.5 M280.3,50.4
			C280.3,50.2,280.3,50.3,280.3,50.4C280.2,50.8,280.2,50.7,280.3,50.4 M307.5,45.8c0,0.1-0.1,0.1-0.2,0.1L307.5,45.8z M312.9,43.3
			C313,43.3,313,43.3,312.9,43.3c-0.1,0.2-0.1,0.2-0.1,0.2C312.8,43.4,312.8,43.4,312.9,43.3C312.9,43.3,312.9,43.3,312.9,43.3
			 M313.1,42.7C313.2,42.6,313.2,42.6,313.1,42.7C313.2,42.9,313.2,42.9,313.1,42.7 M314.2,40.5C314.2,40.7,314.2,40.7,314.2,40.5
			C314.2,40.4,314.2,40.4,314.2,40.5 M284.7,39.2c-0.7,1.6-1.4,3.3-2.3,5c-0.8,1.7-1.5,3.6-2,5.6c0.2-2,0.8-3.8,1.7-5.4
			c0.9-1.6,1.6-3.3,2.3-4.9C284.7,39.4,284.7,39.3,284.7,39.2 M285.6,37.8C285.5,37.8,285.5,37.8,285.6,37.8
			C285.6,38,285.6,37.9,285.6,37.8 M286.2,36.8c0.1,0,0.1-0.1,0.1-0.2c0.1,0.1,0.1,0.2,0,0.3c-0.1,0.1-0.2,0.2-0.3,0.2
			C286,36.9,286.1,36.9,286.2,36.8 M286.7,35.3c0.1,0.1,0.1,0.1-0.1,0.1C286.5,35.2,286.6,35.2,286.7,35.3 M287.3,35.3
			c0-0.1,0-0.2,0.1-0.3c0.1-0.1,0.1-0.2,0.1-0.3c0.1,0.1,0.1,0.2,0,0.3C287.5,35.2,287.4,35.3,287.3,35.3c0,0.1,0,0.2-0.1,0.2h-0.1
			c-0.1,0.2-0.2,0.4-0.3,0.5c-0.1,0.1-0.2,0.3-0.3,0.5c-0.1-0.1,0-0.3,0.1-0.6c0.1-0.2,0.3-0.4,0.5-0.5h0.1
			C287.2,35.4,287.2,35.3,287.3,35.3 M288,34.2C288.1,34.2,288.1,34.2,288,34.2c0.1-0.1,0.1-0.1,0.1,0
			C288.2,34.2,288.1,34.3,288,34.2L288,34.2c0,0.2-0.1,0.2-0.1,0.2C287.8,34.4,287.9,34.3,288,34.2C288,34.2,288,34.2,288,34.2
			 M288.4,33.6C288.4,33.6,288.4,33.7,288.4,33.6c0,0.3,0,0.3-0.1,0.2C288.1,33.8,288.1,33.7,288.4,33.6
			C288.3,33.7,288.3,33.6,288.4,33.6 M301.1,33.7c0.1-0.1,0.1-0.2,0.1-0.4c0.1,0.1,0.1,0.2,0,0.4c-0.1,0.1-0.1,0.2,0,0.4
			C301,34,301,33.8,301.1,33.7 M288.5,33.3C288.6,33.2,288.6,33.2,288.5,33.3C288.6,33.6,288.6,33.5,288.5,33.3 M288.9,32.9
			C288.9,33.1,288.9,33.1,288.9,32.9C288.9,32.8,288.9,32.8,288.9,32.9 M288.9,32.3C288.9,32.4,288.9,32.4,288.9,32.3
			C288.8,32.3,288.8,32.3,288.9,32.3 M290.1,31.5c0-0.1,0.1-0.1,0.2-0.1C290.3,31.5,290.2,31.5,290.1,31.5c0.1,0.2,0,0.2-0.1,0.2
			c0.1,0.2,0,0.4-0.3,0.4v0.1c0,0.1-0.1,0.1-0.2,0.1v0.1c0,0.1,0,0.1-0.1,0.1c0.1,0.1,0,0.2,0,0.1c-0.1-0.1-0.1-0.1,0-0.1
			c0-0.1,0-0.2,0.1-0.2c0-0.1,0.1-0.1,0.2-0.1v-0.1c0-0.1,0-0.2,0.1-0.2c0.1,0,0.1-0.1,0.1-0.2h0.1C290,31.6,290,31.6,290.1,31.5
			 M290.5,31c0-0.2,0.1-0.3,0.2-0.2C290.8,30.9,290.7,31,290.5,31C290.5,31.1,290.5,31.1,290.5,31C290.3,31.1,290.4,31.1,290.5,31
			 M292.3,35.2c0.9-1,1.7-2,2.5-3c0.8-1,1.8-1.8,3-2.4c0.1,0.1,0.2,0.3,0.1,0.5c0,0.2,0,0.4,0.1,0.6c-0.1,0.6-0.3,1-0.5,1.3
			c-0.2,0.3-0.3,0.7-0.4,1.2c-1.4,2.2-2.9,4.3-4.4,6.3c-1.5,2-3.3,3.8-5.2,5.4c0.7-1.8,1.5-3.5,2.4-5.1
			C290.8,38.4,291.6,36.8,292.3,35.2 M301.9,32.2c0.1-0.2,0.1-0.5,0.2-0.8c-0.1-1.7-0.8-2.9-2-3.4c-1.2-0.6-2.6-0.8-4.2-0.8
			c-0.2-0.1-0.5-0.2-0.7-0.2c-0.2,0-0.5-0.1-0.8-0.2c-1.4,1.1-2.6,2.1-3.7,3.2c-1.1,1.1-2.1,2.4-3,3.8l0.2,0.2
			c-0.1,0-0.2-0.1-0.2-0.2c-0.2,0.2-0.4,0.4-0.5,0.7c-0.1,0.2-0.1,0.5-0.2,0.6c0-0.2,0-0.3-0.1-0.3c-0.7,1.2-1.5,2.5-2.2,3.7
			c-0.7,1.2-1.4,2.5-2,4c-0.1,0.3-0.3,0.6-0.5,0.9c-0.2,0.3-0.4,0.6-0.5,0.9c-0.4,1.1-0.8,2.3-1.2,3.5c-0.3,1.2-0.6,2.5-0.7,3.7
			c-0.2,1.2-0.2,2.5,0,3.7c0.2,1.2,0.5,2.4,1.2,3.5c0.3,0.5,0.6,1,1,1.4c0.3,0.5,0.7,0.9,1.1,1.4c0.4,0.5,0.8,0.9,1.3,1.3
			c0.5,0.4,0.9,0.8,1.3,1.3c0.4,0.1,0.7,0.2,1,0.3c0.3,0.1,0.6,0.2,0.8,0.4c0.2,0,0.4,0,0.5,0.1c0.2,0.1,0.4,0.2,0.6,0.3
			c0.3,0,0.6,0,0.7,0c0.2,0,0.4,0,0.7,0c1.4-0.1,2.6-0.3,3.6-0.7c1.1-0.4,2-0.9,2.9-1.5c0.9-0.6,1.7-1.2,2.5-1.9
			c0.8-0.7,1.5-1.4,2.3-2.1c0-0.1,0-0.1-0.1-0.2h-0.1V59c0,0.1,0,0.1-0.1,0.1c0,0.1,0,0.1-0.1,0.1c-0.1,0.1-0.2,0.1-0.2,0
			c0.1-0.1,0.2-0.1,0.3-0.1c0-0.1,0-0.2,0.1-0.2c1.5-1.5,3-3.2,4.4-4.8c1.4-1.7,2.8-3.4,4.2-5.2c0-0.3,0.1-0.5,0.3-0.6
			c0.2-0.1,0.2-0.3,0.1-0.7c0.2,0.2,0.3,0.2,0.3,0c0-0.2,0.1-0.2,0.2-0.1c0.3-1.1,0.8-1.9,1.6-2.7c0.8-0.7,1.3-1.6,1.4-2.7
			c0.1-0.3,0.3-0.6,0.6-0.9c0.2-0.3,0.3-0.7,0.2-1.2c0.1,0,0.2,0,0.2-0.1c-0.1,0.1-0.1,0.1-0.1,0c0.1-0.1,0.2-0.3,0.3-0.4
			c0.2-0.2,0.1-0.3,0-0.4c0,0.2-0.1,0.3-0.2,0.3c0-0.1,0.1-0.2,0.2-0.3c0.1-0.1,0.2-0.2,0.2-0.4c0-0.1,0-0.2,0.1-0.4
			c-0.1-0.1-0.2,0-0.2,0.1c0,0.2,0,0.2-0.1,0c0.2-0.4,0.3-0.7,0.4-0.9c0.1-0.2,0.2-0.5,0.3-0.8c-0.3-0.2-0.6-0.3-0.7-0.1
			c-0.2,0.2-0.4,0.3-0.6,0.4c-0.3,0.5-0.6,0.9-1,1.2c-0.3,0.3-0.6,0.7-0.8,1.3c-0.2,0.1-0.5,0.3-0.8,0.7c-0.3,0.3-0.4,0.6-0.4,1
			c-0.2,0.1-0.3,0-0.3,0c0-0.1-0.1-0.1-0.2,0c-0.1,0.6-0.4,1-0.9,1.4c-0.5,0.4-0.8,0.8-0.8,1.2c-0.2-0.1-0.4,0.1-0.6,0.4
			c-0.1,0.3-0.2,0.6-0.4,0.7c-0.3,0.1-0.6,0.3-0.7,0.6c-0.2,0.2-0.3,0.5-0.5,0.8c-0.1-0.1-0.2-0.1-0.3,0c-0.1,0.2-0.2,0.3-0.3,0.4
			c-0.3,0.3-0.6,0.6-0.8,0.9c-0.2,0.3-0.5,0.6-0.8,0.9h-0.1c-0.7,0.9-1.6,1.8-2.5,2.5c-0.9,0.7-1.7,1.6-2.5,2.6
			c0.1-0.1,0-0.1-0.1-0.1c-0.2,0.3-0.4,0.5-0.7,0.7c-0.3,0.1-0.5,0.4-0.6,0.8c-0.3-0.1-0.5,0-0.7,0.2c-0.2,0.3-0.4,0.5-0.6,0.6
			c-0.7,0.6-1.5,1.1-2.2,1.8c-0.7,0.6-1.5,1.2-2.3,1.7c-0.8,0.5-1.7,1-2.6,1.3c-0.9,0.4-1.9,0.6-3.1,0.6c-0.6-0.6-0.9-1.4-1.2-2.5
			c-0.2-1-0.3-2.1-0.3-3.2c0-1.1,0.1-2.2,0.3-3.3c0.2-1.1,0.4-2,0.7-2.7c0.7-0.3,1.4-0.6,2.1-1c0.6-0.3,1.3-0.8,1.8-1.3
			c0.1,0.1,0.1,0.2,0.1,0.1c0-0.1,0.1-0.1,0.2-0.1c2.3-2,4.4-4.1,6.4-6.4c2-2.3,3.6-5,4.9-8.1h-0.1c0-0.2,0-0.4,0.1-0.4v0.4
			C301.7,32.8,301.8,32.5,301.9,32.2 M267.5,60.2c0.1-0.1,0.1-0.2,0-0.2C267.4,60.2,267.4,60.3,267.5,60.2 M267.8,59.7
			c0.1,0,0.2-0.1,0.2-0.2c0-0.1,0-0.2-0.2-0.1V59.7z M268.4,58.7C268.4,58.7,268.3,58.7,268.4,58.7
			C268.5,58.8,268.5,58.7,268.4,58.7 M255.6,58.3C255.6,58.3,255.5,58.3,255.6,58.3C255.7,58.4,255.7,58.4,255.6,58.3 M255.9,58.7
			c0.1-0.1,0.1-0.2,0.1-0.3c0-0.2,0-0.2-0.1-0.2C255.8,58.2,255.8,58.4,255.9,58.7L255.9,58.7z M255.5,58.1c0-0.2,0-0.3,0.1-0.3
			c0.1,0,0-0.1-0.2-0.1C255.4,57.9,255.5,58.1,255.5,58.1 M255.8,57.4C255.8,57.2,255.8,57.2,255.8,57.4
			C255.8,57.7,255.8,57.6,255.8,57.4 M255.4,56.9c0-0.2-0.1-0.2-0.2,0C255.4,57.1,255.4,57.1,255.4,56.9 M255.6,56.3
			c-0.1,0.2,0,0.3,0.1,0.3c0-0.1,0-0.2,0.1-0.2c0.1,0,0.1-0.1,0-0.2C255.8,56.1,255.7,56.2,255.6,56.3 M255.6,55.9
			C255.6,55.9,255.5,55.9,255.6,55.9C255.7,56,255.7,56,255.6,55.9 M255.7,55.7c0.2-0.1,0.2-0.2,0-0.3
			C255.5,55.6,255.5,55.7,255.7,55.7 M255.2,55.8c-0.1,0.3,0,0.6,0.1,0.7v-0.9c0-0.4-0.1-0.5-0.2-0.4
			C255.3,55.3,255.3,55.5,255.2,55.8 M255.4,55c-0.1,0.2,0,0.2,0.1,0.2c0-0.2,0-0.3,0.1-0.4c0.1-0.1,0-0.1-0.2-0.1
			C255.5,54.7,255.5,54.9,255.4,55 M255.2,54.6c-0.1,0.2,0,0.3,0.1,0.3c0-0.1,0-0.3,0.1-0.4c0.1-0.2,0-0.2-0.2-0.2
			C255.2,54.3,255.2,54.4,255.2,54.6 M255.2,53.6c-0.1,0.2-0.1,0.3-0.1,0.2C255.1,53.8,255.1,53.7,255.2,53.6
			C255.1,53.6,255.2,53.5,255.2,53.6L255.2,53.6z M255.6,52.8C255.6,52.8,255.5,52.8,255.6,52.8C255.7,52.8,255.7,52.8,255.6,52.8
			 M255.3,52.9C255.3,52.7,255.2,52.6,255.3,52.9C255.2,53.1,255.3,53.1,255.3,52.9 M255.5,52.6c0-0.3-0.1-0.5-0.2-0.5
			C255.3,52.4,255.4,52.6,255.5,52.6 M255.8,52C255.8,51.7,255.8,51.7,255.8,52C255.8,52.2,255.8,52.2,255.8,52 M255.5,51.5
			C255.5,51.3,255.5,51.3,255.5,51.5C255.5,51.8,255.5,51.8,255.5,51.5 M255.3,51.2C255.3,51,255.2,51,255.3,51.2
			C255.2,51.4,255.3,51.4,255.3,51.2 M255.2,50.3c-0.1,0.2,0,0.2,0.2,0.1c0-0.3-0.1-0.5-0.2-0.6C255.2,50,255.2,50.1,255.2,50.3
			 M255.7,49.4c0.1,0.1,0.2,0.1,0.1-0.2C255.6,49.2,255.6,49.3,255.7,49.4 M255.3,49.3C255.3,49.1,255.3,49.1,255.3,49.3
			C255.3,49.6,255.3,49.6,255.3,49.3 M255.9,49.1c-0.1,0-0.1,0-0.1,0.1C255.9,49.1,256,49.1,255.9,49.1 M255.5,48.8
			C255.5,48.6,255.5,48.6,255.5,48.8C255.5,49.1,255.5,49.1,255.5,48.8 M255.7,48.2c0-0.2-0.1-0.2-0.2,0
			C255.7,48.4,255.7,48.4,255.7,48.2 M255.3,48.3c0-0.1,0-0.2,0-0.2c0,0,0-0.1-0.1-0.2C255.3,48.1,255.3,48.2,255.3,48.3
			 M255.4,47.1c-0.1,0-0.2,0-0.2,0.1C255.4,47,255.4,47,255.4,47.1 M267.5,46.3c0.1-0.2,0.1-0.4,0-0.4c-0.1,0.1-0.1,0.2-0.2,0.4
			c-0.1,0.1-0.1,0.3-0.1,0.5C267.3,46.6,267.4,46.5,267.5,46.3 M255.3,45.7c-0.1,0.2,0,0.2,0.1,0.2c0.1-0.3,0-0.5-0.1-0.6
			C255.4,45.5,255.4,45.6,255.3,45.7 M255.8,45.3C255.8,45.1,255.8,45.1,255.8,45.3C255.8,45.6,255.8,45.6,255.8,45.3 M255.6,44.7
			c0-0.3-0.1-0.3-0.3,0C255.5,45,255.6,45,255.6,44.7 M255.8,44C255.7,44,255.7,44,255.8,44C255.8,44.1,255.8,44.1,255.8,44
			 M255.4,43.1C255.5,42.9,255.5,42.8,255.4,43.1C255.4,43.4,255.4,43.4,255.4,43.1 M268.9,42.8c0,0.1,0,0.2-0.1,0.4
			c0.2-0.1,0.4-0.2,0.4-0.5C269,42.7,268.9,42.7,268.9,42.8 M255.5,42.5C255.5,42.3,255.5,42.3,255.5,42.5
			C255.5,42.8,255.5,42.8,255.5,42.5 M255.6,41.9C255.6,41.9,255.5,41.9,255.6,41.9C255.7,42,255.7,42,255.6,41.9 M269.7,41.4
			c-0.1,0.2-0.2,0.4-0.3,0.6c-0.2,0.2-0.2,0.4-0.2,0.7h0.1c0.1-0.1,0.2-0.3,0.2-0.5c0-0.2,0.1-0.4,0.3-0.5L269.7,41.4L269.7,41.4z
			 M255.4,41.5c0.1,0,0.2,0,0.3,0.1c0-0.3-0.1-0.4-0.3-0.3V41.5z M270.1,41c0.1,0,0.1-0.1,0.1-0.2c-0.3,0-0.5,0.2-0.5,0.6
			c0.1,0,0.1,0,0.1,0c0,0,0,0,0.1,0C270,41.1,270,41,270.1,41 M255.6,40.5C255.7,40.2,255.7,40.2,255.6,40.5
			C255.5,40.8,255.6,40.8,255.6,40.5 M255.6,40c0.1,0.1,0.2,0.1,0.2-0.1C255.6,39.9,255.5,39.9,255.6,40 M255.9,39.8
			c-0.1,0-0.1,0-0.1,0.1C255.9,39.9,256,39.8,255.9,39.8 M255.9,39.6C255.9,39.5,255.9,39.5,255.9,39.6
			C256,39.7,256,39.6,255.9,39.6 M255.9,39c-0.1,0.2,0,0.3,0.1,0.3c-0.1-0.2,0-0.3,0.1-0.5c0.2-0.1,0.1-0.2-0.2-0.2
			C256,38.7,256,38.8,255.9,39 M255.8,38.6C255.8,38.4,255.8,38.4,255.8,38.6C255.8,38.9,255.8,38.9,255.8,38.6 M255.8,37.7
			C255.8,37.5,255.8,37.5,255.8,37.7C255.8,38,255.8,38,255.8,37.7 M256.1,37.7c0.2-0.2,0.2-0.3-0.1-0.5
			C256,37.5,256,37.6,256.1,37.7 M255.9,36.9c0-0.1,0-0.2-0.1-0.2c-0.1,0-0.1,0.1-0.1,0.2H255.9z M256.2,36.5
			C256.1,36.5,256.1,36.5,256.2,36.5C256.2,36.6,256.2,36.6,256.2,36.5 M256.1,35.9c-0.1,0.1-0.1,0.2-0.1,0.3c0.2,0.1,0.3,0,0.3-0.2
			c0-0.3-0.1-0.4-0.2-0.4C256.2,35.7,256.2,35.8,256.1,35.9 M256,35.5c-0.1,0-0.2,0-0.2,0.1C255.9,35.5,256,35.4,256,35.5
			 M256.2,35.1C256.1,35.1,256.1,35.1,256.2,35.1C256.2,35.2,256.2,35.2,256.2,35.1 M255.8,34.9C255.9,34.6,255.9,34.6,255.8,34.9
			C255.7,35.1,255.7,35.2,255.8,34.9 M256,34.2C256,33.9,256,33.9,256,34.2C256,34.4,256,34.4,256,34.2 M256.3,33.3
			C256.3,33.4,256.3,33.4,256.3,33.3l0.1-0.5c0-0.2,0-0.2-0.1,0V33.3z M274.6,31.7c0-0.2-0.1-0.2-0.2,0
			C274.6,31.9,274.6,31.9,274.6,31.7 M255.3,30.8c0-0.1,0-0.2-0.1-0.2c-0.1,0-0.1,0.1-0.1,0.2H255.3z M274.9,30.8
			c-0.1,0.2-0.1,0.3,0,0.3c0.1-0.1,0.1-0.2,0.2-0.3c0.1-0.1,0.1-0.2,0-0.4C275.1,30.5,275,30.6,274.9,30.8 M275.5,29.6
			c-0.1,0.1-0.1,0.2-0.2,0.3c-0.1,0.1-0.1,0.3-0.1,0.5h0.1c0.1-0.1,0.1-0.3,0.2-0.4C275.5,29.9,275.6,29.8,275.5,29.6L275.5,29.6z
			 M257,29.6C257,29.4,257,29.4,257,29.6C257,29.8,257,29.8,257,29.6 M275.7,29.3c-0.1-0.1-0.2,0-0.1,0.4
			C275.8,29.5,275.8,29.4,275.7,29.3 M276,28.7c0.1,0.1,0.1,0,0-0.1C275.9,28.5,275.9,28.6,276,28.7 M276.1,28.3
			c-0.1,0-0.1,0.1-0.1,0.2C276.2,28.4,276.2,28.3,276.1,28.3 M276.2,28.2C276.3,28.2,276.3,28.2,276.2,28.2
			C276.2,28.2,276.2,28.2,276.2,28.2 M276.3,27.9c-0.1-0.1-0.1,0,0,0.3C276.4,28.1,276.4,28,276.3,27.9 M276.7,27
			c0,0.1,0,0.2-0.1,0.3c-0.1,0.1-0.1,0.2,0,0.4c0-0.1,0-0.2,0.1-0.3c0.1-0.1,0.1-0.2,0.1-0.4H276.7z M256.1,58.9
			c0.2,0.1,0.3,0.3,0.3,0.7C256.2,59.4,256.1,59.2,256.1,58.9 M255.9,57.1c0-0.1,0.1-0.1,0.2-0.1C256.1,56.9,256,57,255.9,57.1
			 M263.6,54.5h0.2v0.3h-0.2V54.5z M264,53.9c0.1-0.1,0.2-0.2,0.1-0.3c0.1,0,0.2,0.1,0.1,0.3c0,0.2-0.1,0.3-0.1,0.4
			C263.9,54.1,263.8,54,264,53.9 M264.4,53.1C264.4,53.4,264.4,53.4,264.4,53.1C264.4,52.9,264.4,52.9,264.4,53.1 M264.9,52.7
			c0.1,0,0.1-0.1,0.1-0.1c0.1,0,0.2,0,0.1,0.1c-0.1,0.1-0.1,0.1-0.1,0.2C264.9,52.8,264.8,52.7,264.9,52.7 M265.2,52.2
			c0-0.1,0.1-0.1,0.2-0.1C265.4,52,265.3,52.1,265.2,52.2 M265,51.7c0.1,0,0.1-0.1,0.1-0.2c0.1,0,0.2,0.1,0.1,0.3
			c-0.1,0.2-0.2,0.3-0.4,0.3C264.9,51.8,264.9,51.7,265,51.7 M265.5,51.1h0.3v0.3h-0.3V51.1z M265.5,50.8c0.2,0.1,0.1,0.2-0.1,0.3
			C265.3,50.8,265.3,50.7,265.5,50.8 M265.8,50.7C265.7,50.9,265.7,50.9,265.8,50.7C265.9,50.6,265.9,50.6,265.8,50.7 M266.1,49.5
			c0.1,0,0,0.1-0.1,0.2c0,0.1,0,0.2,0,0.2c0,0,0,0.1,0,0.2h-0.1c0,0.3-0.1,0.5-0.4,0.5c0.1-0.3,0.2-0.5,0.4-0.5c0-0.2,0-0.3,0.1-0.4
			h0.1C266,49.6,266,49.5,266.1,49.5 M266.5,48.7c0.1,0,0,0.1-0.1,0.1C266.4,48.7,266.4,48.7,266.5,48.7 M267.1,47.6
			c0-0.1,0-0.1,0.1-0.2c0.2,0.1,0.2,0.1,0.1,0.2c-0.1,0.1-0.2,0.2-0.1,0.3C267.2,47.9,267.1,47.8,267.1,47.6 M267.7,47
			C267.7,47.2,267.6,47.2,267.7,47C267.6,46.7,267.7,46.7,267.7,47 M268,46.2c0.1-0.1,0.1-0.1,0.1-0.2c0.1,0,0.2,0,0.1,0.1
			c-0.1,0.1-0.1,0.2-0.1,0.2C267.9,46.4,267.9,46.3,268,46.2 M268.1,45.7C268,46,268,46,268.1,45.7
			C268.2,45.5,268.2,45.5,268.1,45.7 M268.3,45.4C268.3,45.7,268.3,45.7,268.3,45.4C268.3,45.2,268.3,45.2,268.3,45.4 M268.8,44.2
			c0,0,0-0.1,0-0.2c0.1-0.1,0.2,0,0.2,0.2c0,0.2-0.1,0.3-0.3,0.2C268.8,44.3,268.8,44.2,268.8,44.2 M268.5,44.1
			c0.1-0.2,0.2-0.3,0.2-0.3c0.2,0.1,0.2,0.2,0.1,0.4c-0.1,0.1-0.2,0.2-0.2,0.4C268.4,44.4,268.4,44.2,268.5,44.1 M269.4,43.4
			c0.1,0.1,0.1,0.2-0.2,0.3C269.3,43.3,269.3,43.2,269.4,43.4 M269.5,43C269.6,43.1,269.6,43.1,269.5,43C269.4,43,269.5,43,269.5,43
			 M269.8,42.5C269.8,42.8,269.8,42.8,269.8,42.5C269.8,42.3,269.8,42.3,269.8,42.5 M269.9,42.1c0-0.1,0-0.1,0.1-0.2
			c0.2,0,0.2,0,0.1,0.1c-0.1,0.1-0.2,0.2-0.1,0.3C269.9,42.3,269.9,42.2,269.9,42.1 M270.6,41C270.7,41,270.7,41,270.6,41
			C270.6,41,270.6,41,270.6,41 M271.4,39.6c0.1,0,0,0.1-0.1,0.1c0,0.1,0,0.2-0.1,0.2c-0.1,0-0.1,0.1-0.1,0.2H271
			c0.1,0.2,0,0.2,0,0.1c-0.1-0.1-0.1-0.1,0-0.1c0-0.2,0-0.4,0.1-0.5h0.2C271.3,39.6,271.3,39.6,271.4,39.6 M271.9,37.9
			c0,0.2-0.1,0.2-0.2,0C271.8,37.7,271.9,37.7,271.9,37.9 M272.6,37.2c0-0.1,0.1-0.2,0.2-0.1c0,0.2-0.1,0.4-0.3,0.5
			c0,0.2-0.1,0.3-0.2,0.2c-0.1-0.1-0.1-0.2,0.2-0.2C272.6,37.4,272.6,37.3,272.6,37.2 M273.3,35.4c0,0.2-0.1,0.4-0.3,0.5
			c-0.2,0.5-0.6,1.1-0.9,1.7c-0.1-0.3,0-0.6,0.3-0.9c0.2-0.3,0.5-0.5,0.6-0.8C273.1,35.5,273.2,35.3,273.3,35.4 M273.8,35.1
			C273.9,35.2,273.9,35.2,273.8,35.1C273.8,35.1,273.8,35.1,273.8,35.1 M273.5,34.8c0.2-0.2,0.3-0.3,0.3-0.5c0.2,0.2,0.2,0.3,0,0.5
			c-0.2,0.1-0.3,0.3-0.3,0.6C273.3,35.1,273.3,34.9,273.5,34.8 M274.1,33.6c0.1-0.2,0.2-0.3,0.2-0.4c0.2,0.1,0.2,0.2,0,0.3
			c-0.2,0.2-0.2,0.3-0.2,0.5C274,34,274,33.8,274.1,33.6 M274.6,32.8c0-0.2,0-0.2,0.2-0.1c0,0.3-0.1,0.5-0.4,0.5
			C274.6,33.1,274.6,33,274.6,32.8 M256.3,32.1h0.2v0.3h-0.2V32.1z M275.3,31.6C275.3,31.5,275.3,31.5,275.3,31.6
			c0.2-0.1,0.2,0,0.1,0.3h-0.1c0,0.2,0,0.3-0.1,0.4c-0.1,0-0.1-0.1-0.1-0.2c0-0.1,0-0.1,0.1-0.2h0.1V31.6z M256.1,31.5
			C256.1,31.7,256.1,31.7,256.1,31.5C256.1,31.2,256.1,31.2,256.1,31.5 M276.1,30.1C276.1,30.4,276.1,30.4,276.1,30.1
			C276.1,30,276.1,29.9,276.1,30.1 M276.4,29.6C276.4,29.8,276.4,29.8,276.4,29.6C276.4,29.4,276.4,29.4,276.4,29.6 M279.1,26.6
			c-0.2-0.1-0.3-0.2-0.2-0.5c-0.2,0.1-0.3,0.1-0.4,0c-0.1-0.1-0.2,0-0.5,0.1c0-0.1,0.1-0.2,0.2-0.4c0.1-0.1,0.1-0.2-0.1-0.4
			c0,0.2,0,0.3-0.1,0.3c-0.1,0-0.2,0.1-0.3,0.2c-0.1,0-0.1,0.1,0,0.2c0,0.2,0,0.2-0.1,0.2v-0.4c0-0.1,0.1-0.2,0.2-0.1v-0.3
			c-0.3,0.1-0.6,0.5-0.8,1.2c0.1,0,0.2-0.1,0.3-0.3c0.1-0.2,0.2-0.2,0.3-0.1c-0.9,1.5-1.7,3.1-2.4,4.7c-0.7,1.6-1.5,3.1-2.3,4.7
			c-0.3,0.3-0.6,0.7-0.9,1.2c-0.3,0.5-0.4,1-0.4,1.5c0.1-0.1,0.1-0.2,0.1-0.3c0-0.2,0.1-0.2,0.1,0c-0.1,0.2-0.2,0.6-0.6,0.9
			c0-0.2,0-0.4-0.1-0.4c0,0.1-0.1,0.2-0.2,0.5c0.3-0.1,0.3,0.1,0.1,0.4c-0.2,0.3-0.4,0.6-0.5,0.7c-0.1-0.3,0-0.5,0.1-0.6
			c0.2-0.1,0.2-0.3,0.2-0.5c-0.4,0.3-0.6,0.6-0.5,1c0.1,0.3,0,0.7-0.4,1c0,0.1-0.1,0.2-0.2,0.4c-0.1,0.7-0.4,1.2-0.9,1.7
			c-0.1-0.1-0.1-0.1-0.1-0.2h-0.1c-0.3,0.3-0.4,0.7-0.4,1.1c0.1,0.4-0.1,0.8-0.4,1.1c-0.1-0.1-0.1-0.2,0-0.3c0.1-0.1,0.1-0.2,0-0.2
			c-0.2,0.4-0.3,0.8-0.2,1.2c0,0.4-0.2,0.8-0.6,1.3v-0.6c-0.1,0.3-0.2,0.5-0.2,0.6v0.6c-0.3-0.1-0.5,0.1-0.5,0.4c0.1,0,0.1,0,0.1,0
			c0,0,0,0,0.1,0c0-0.1,0-0.2,0.1-0.1c0.1,0,0,0.1-0.1,0.1c0,0.2-0.1,0.3-0.2,0.5v-0.4c-0.9,1.4-1.6,3-2.2,4.6
			c-0.6,1.7-1.4,3.2-2.4,4.5c-0.3-2.4-0.3-5.2,0-8.4c0.3-3.2,0.5-6.4,0.7-9.5c0.1-0.4,0.1-0.9,0.1-1.4c0-0.5,0-0.9,0-1.3
			c0-0.1,0-0.3-0.1-0.5c-0.1-0.2-0.1-0.3-0.1-0.5c-0.1-0.4-0.1-0.7,0-1.1c0.1-0.4,0.1-0.6,0-0.8c-0.1-0.1-0.2-0.4-0.3-0.8
			c-0.1-0.4-0.1-0.8,0-1.1c-0.2-0.6-0.6-1.1-1.2-1.8c-0.5-0.6-1.1-0.8-1.8-0.5c0-0.2-0.1-0.3-0.2-0.3c-0.2,0-0.3,0-0.4,0
			c-0.3,0.1-0.5,0.2-0.7,0.3c-0.2,0.1-0.4,0.1-0.6,0c0.1,0.3,0.1,0.4-0.2,0.4c-0.2-0.1-0.4-0.1-0.6-0.2c-0.2,0.1-0.4,0.3-0.6,0.4
			c-0.2,0.2-0.4,0.4-0.4,0.9c0.3-0.1,0.5,0.2,0.6,0.7c0.1,0.5,0.2,0.9,0.6,1c0,2,0,4-0.1,5.9c-0.1,1.9-0.2,3.8-0.2,5.7
			c-0.1,1.9-0.1,3.9-0.2,5.8c-0.1,2-0.1,4.1,0,6.4c-0.1-0.1-0.2,0-0.2,0.1c0,0.1-0.1,0.2-0.2,0.4c0.4,0.1,0.6,0.3,0.6,0.6
			c0,0.4,0,0.7-0.1,1c-0.1,0.1-0.2,0.1-0.2-0.1c-0.2,0-0.3,0-0.3,0.1c0.2,0.3,0.3,0.7,0.4,1c0.1,0.4,0.3,0.7,0.6,1
			c0.2,0.1,0.4,0.2,0.7,0.3c0.3,0.1,0.5,0.2,0.8,0.4c0.2,0.2,0.4,0.3,0.4,0.4c0,0.1,0.3,0.2,0.7,0.3c0.4,0.2,0.8,0.4,1.2,0.6
			c0.4,0.2,0.8,0.4,1.2,0.4c0.1,0,0.2,0,0.3-0.1c0.1-0.1,0.2-0.1,0.3-0.1c0.7-0.1,1.3-0.1,2-0.2c0.6-0.1,1.3-0.3,1.9-0.8
			c0-0.2,0-0.3,0.1-0.3s0.1-0.1,0-0.3c0.2,0.1,0.5,0,0.8-0.5c0.3-0.4,0.4-0.7,0.2-0.7l-0.1,0.1c0-0.1,0-0.1,0.1-0.1
			c0.1-0.3,0.2-0.5,0.4-0.5c0-0.4,0.1-0.6,0.3-0.6c0.3-0.5,0.6-1,0.9-1.4c0.3-0.5,0.6-0.9,1.1-1.3c-0.1-0.1-0.1-0.3,0-0.5
			c0-0.2,0.2-0.3,0.5-0.3c0.5-1.4,1-2.7,1.6-3.9c0.6-1.2,1.2-2.5,1.9-3.7c0.7-1.4,1.4-2.9,2.1-4.5c0.7-1.6,1.5-3.2,2.2-4.7
			c0.4-0.9,0.8-1.8,1.3-2.6c0.4-0.8,0.8-1.8,1.1-2.8c0.2-1.1,0.2-2-0.1-2.8c-0.2-0.8-0.3-1.7-0.3-2.5c-0.1,0.1-0.2,0.2-0.2,0.3
			c0,0.1-0.1,0.2-0.3,0.3c0.1-0.2,0.2-0.5,0.2-0.7c0-0.2-0.1-0.4-0.4-0.5c-0.1-0.2,0-0.3,0.2-0.4c0.2-0.1,0.1-0.1-0.2-0.1
			C279.4,26.8,279.4,26.6,279.1,26.6 M247.3,60.6c0.1,0.1,0.2,0,0.2-0.1C247.2,60.4,247.2,60.5,247.3,60.6 M247.7,60.1
			c0.1,0.1,0.2,0,0.2-0.1C247.7,60,247.6,60,247.7,60.1 M248.4,59.5c0.1-0.1,0-0.2-0.1-0.2C248.3,59.6,248.3,59.6,248.4,59.5
			 M243.3,57.9C243.2,58,243.2,58,243.3,57.9c0,0,0-0.1,0.1-0.1c0.1,0,0-0.1-0.1-0.1C243.4,57.8,243.4,57.9,243.3,57.9 M244.1,57
			c-0.1,0-0.2,0-0.3,0.1c-0.1,0.1-0.1,0.2,0,0.3c-0.1-0.1,0-0.2,0.1-0.2C244.1,57.2,244.2,57.1,244.1,57 M244.2,56.8
			c-0.1,0-0.1,0.1,0,0.2c0.2,0,0.2-0.1,0.2-0.4C244.3,56.8,244.3,56.8,244.2,56.8 M244.3,56.6L244.3,56.6c0.2,0,0.3,0,0.3-0.1
			c0-0.1-0.1-0.1-0.2-0.1L244.3,56.6z M244.8,56.1c0.2,0.1,0.3,0,0.3-0.1c0-0.1,0.1-0.2,0.1-0.4C245,55.8,244.8,56,244.8,56.1
			 M246,54.8C245.9,54.8,245.9,54.8,246,54.8C245.9,54.9,246,54.8,246,54.8 M246.7,53.8c-0.3,0.3-0.4,0.6-0.3,0.9
			c0.1-0.4,0.3-0.7,0.6-0.9c0.2-0.2,0.4-0.4,0.6-0.7C247.3,53.2,247,53.4,246.7,53.8 M247.5,53L247.5,53l0.1-0.2
			C247.5,52.8,247.5,52.9,247.5,53 M247.8,52.7c0.1-0.1,0.1-0.2,0-0.2c-0.1,0.1-0.1,0.1-0.2,0.1c-0.1,0-0.1,0.1,0,0.2
			C247.6,52.8,247.7,52.8,247.8,52.7 M248.1,52c0,0.1,0,0.1-0.1,0.2c-0.1,0.1-0.1,0.2,0,0.3c0.1-0.1,0.1-0.2,0.1-0.2
			C248.2,52.2,248.2,52.1,248.1,52L248.1,52z M248.3,51.9c-0.1-0.1-0.1-0.1-0.1,0.1C248.4,52.1,248.4,52,248.3,51.9 M248.6,51.6
			c0-0.1,0-0.1-0.1,0C248.5,51.7,248.6,51.7,248.6,51.6 M248.7,51.3c0,0,0-0.1,0-0.2C248.7,51.3,248.7,51.3,248.7,51.3 M234.7,51.2
			c-0.2,0-0.3,0-0.2,0.1c0.1,0.1,0.1,0.2,0.1,0.3C234.6,51.6,234.7,51.5,234.7,51.2 M249,51.2c0-0.1-0.1-0.2-0.3-0.2v0.2H249z
			 M249,50.8C249,50.9,249,50.9,249,50.8l0.1-0.2C249.1,50.7,249.1,50.8,249,50.8 M234.2,50.7c0,0.1-0.1,0.2-0.1,0.3
			c0.1,0,0.2,0,0.2-0.1c0-0.1,0.1-0.2,0.2-0.3C234.4,50.6,234.3,50.6,234.2,50.7 M234.3,50c-0.1,0.1,0,0.2,0.1,0.3
			c0-0.1,0-0.2,0.1-0.3c0.1-0.2,0-0.2-0.1-0.2C234.4,49.8,234.4,49.9,234.3,50 M249.7,49.8c-0.2,0.2-0.2,0.3,0,0.3
			c0.2-0.2,0.3-0.4,0.5-0.6C250,49.5,249.9,49.6,249.7,49.8 M250.2,49.2v0.2C250.2,49.4,250.2,49.3,250.2,49.2L250.2,49.2z
			 M250.6,48.9c0.1-0.1,0.2-0.2,0.3-0.4c-0.2-0.1-0.4-0.1-0.4,0.1c0,0.2-0.1,0.4-0.2,0.5C250.4,49.1,250.5,49.1,250.6,48.9
			 M251.2,48.1c-0.1-0.1-0.2,0-0.2,0.1C251.2,48.2,251.3,48.1,251.2,48.1 M251.4,47.9c0-0.2,0-0.2-0.1,0
			C251.3,48,251.4,48,251.4,47.9 M251.7,47.3C251.8,47.3,251.8,47.2,251.7,47.3C251.7,47.2,251.7,47.3,251.7,47.3 M251.8,47.2
			c0.1,0,0.1,0,0.2-0.1c0.1-0.1,0.1-0.2,0-0.3c0,0.1-0.1,0.2-0.2,0.2C251.7,47,251.7,47,251.8,47.2 M252.3,46.2
			c-0.1,0.2-0.1,0.2,0,0.2c0.1-0.1,0.2-0.2,0.3-0.5C252.5,46,252.4,46,252.3,46.2 M252.9,45.6c-0.1,0-0.2,0.1-0.2,0.2
			C252.9,45.8,252.9,45.7,252.9,45.6 M253,45.3c-0.1,0.1-0.1,0.2-0.1,0.3c0.2-0.1,0.3-0.2,0.3-0.6C253.2,45.2,253.1,45.3,253,45.3
			 M253.3,45C253.2,45,253.2,45,253.3,45C253.3,45,253.4,45,253.3,45 M235.3,45.6c0-0.3,0.1-0.7,0.2-1.2c-0.2,0.2-0.3,0.6-0.4,1.1
			c-0.1,0.5-0.1,0.9-0.1,1.3C235.1,46.4,235.2,46,235.3,45.6 M253.5,44.6c-0.2,0.1-0.1,0.2,0,0.3c0-0.1,0.1-0.2,0.2-0.3
			c0.1-0.1,0.1-0.2-0.1-0.3C253.7,44.4,253.7,44.5,253.5,44.6 M234.6,49.1c-0.1-0.1-0.1-0.2,0-0.2c0.1,0,0.1,0,0.1,0c0,0,0,0,0.1,0
			C234.8,49.1,234.7,49.2,234.6,49.1 M234.7,48.2c0.1-0.2,0.1-0.4,0.2-0.6c0.1,0.2,0.2,0.4,0.1,0.6c-0.1,0.2-0.1,0.4-0.2,0.5
			C234.6,48.6,234.6,48.5,234.7,48.2 M234.5,48.7c0,0.6,0.1,1.2,0.1,1.9c0.2-1.2,0.5-2.3,0.7-3.4c0.2-1.1,0.4-2.2,0.7-3.2
			c-0.4,0.5-0.6,1.1-0.6,1.7c0,0.7-0.2,1.3-0.6,1.9c-0.1-0.2-0.1-0.3,0-0.4c0.1-0.1,0.1-0.2,0.1-0.3
			C234.6,47.5,234.5,48.1,234.5,48.7 M253.9,44.2c0.2,0,0.3-0.1,0.3-0.2c0-0.1,0-0.2,0.1-0.3C254,43.9,253.9,44,253.9,44.2
			 M254.6,43.2h0.2V43h-0.2V43.2z M255.3,42.3c-0.1-0.1-0.2,0-0.3,0.2c-0.1,0.2-0.1,0.3,0,0.3c0-0.1,0-0.2,0.1-0.2
			C255.2,42.5,255.3,42.4,255.3,42.3 M255.3,42.2C255.2,42.3,255.2,42.4,255.3,42.2C255.5,42.1,255.5,42,255.3,42.2 M255.9,41.2
			c0,0.1,0,0.1,0,0.2C256,41.4,256,41.3,255.9,41.2C255.9,41.1,255.9,41.2,255.9,41.2 M256.4,40.8c0.1,0,0.1-0.1,0-0.3
			c-0.1-0.1-0.2,0-0.2,0.2c0,0.2,0.1,0.3,0.2,0.2C256.3,40.9,256.3,40.8,256.4,40.8 M256.4,40.5c0.1,0,0.2,0,0.2-0.1
			c0-0.1,0-0.1,0.1-0.2C256.5,40.2,256.4,40.3,256.4,40.5 M256.9,39.6c-0.2,0.1-0.2,0.2,0.1,0.4c0.1-0.1,0.1-0.2,0.1-0.4
			c0-0.1,0.1-0.2,0.2-0.4C257.3,39.3,257.1,39.4,256.9,39.6 M257.6,39.1c0-0.2,0-0.2-0.1-0.2c0,0.1,0,0.2,0,0.2c0,0,0,0,0,0.1
			C257.5,39.3,257.6,39.3,257.6,39.1 M259.3,38.9c0.1-0.1,0.1-0.1,0-0.1C259.2,38.9,259.2,39,259.3,38.9 M234.8,58.6
			c0.1-0.2,0-0.3-0.1-0.3c0.1-0.1,0.1-0.1,0.2,0.1s0.1,0.3,0,0.4C234.8,58.8,234.8,58.8,234.8,58.6 M234.8,58v-0.4
			c0.1-0.1,0.2,0,0.1,0.2c-0.1,0.2,0,0.2,0.1,0.2C234.8,58.1,234.8,58.1,234.8,58 M234.6,57.3c0.1-0.1,0.2,0,0.2,0.3
			c-0.1,0-0.1,0-0.1,0c0,0,0,0-0.1,0V57.3z M234.6,56c0.1,0.1,0.1,0.2,0.1,0.6c0,0.3,0,0.5-0.1,0.6V56z M234.2,55.5
			c0-0.1,0-0.2,0-0.2c0.1,0,0.2,0.1,0.2,0.3C234.2,55.6,234.1,55.6,234.2,55.5 M234.6,55.9c-0.1-0.2-0.2-0.3-0.1-0.5
			c0.1-0.1,0.1-0.3,0.1-0.6c0.1,0.1,0.2,0.3,0.1,0.5C234.6,55.6,234.6,55.8,234.6,55.9 M248.8,52.1C248.9,52,249,52.1,248.8,52.1
			C248.7,52.3,248.6,52.3,248.8,52.1 M252.9,46.7c-0.1,0-0.2-0.1-0.2-0.3C252.9,46.4,252.9,46.5,252.9,46.7 M258.5,39.9
			c0.1-0.1,0.2-0.1,0.1,0C258.6,40.1,258.6,40.1,258.5,39.9 M257.5,39.8c0-0.1,0.1-0.1,0.2-0.1C257.7,39.8,257.6,39.8,257.5,39.8
			 M236.8,39.7c0-0.1,0.1-0.2,0.1-0.3c0.1,0.1,0.1,0.2,0,0.3c-0.1,0.1-0.1,0.2-0.1,0.2h-0.1v0.4v0.1c-0.1,0-0.2,0-0.2-0.1
			c0-0.1,0.1-0.2,0.2-0.3C236.8,39.9,236.8,39.8,236.8,39.7 M237.3,39.4c0.1,0,0.1-0.1,0-0.2c0.1,0,0.2,0,0.1,0.1
			c-0.1,0.1-0.1,0.2-0.1,0.3C237.2,39.5,237.2,39.5,237.3,39.4 M237.1,39.1c0-0.1,0-0.2,0-0.2c0,0,0-0.1,0-0.1
			c0.1-0.1,0.2,0,0.1,0.2C237.3,39.1,237.2,39.2,237.1,39.1 M237.5,37.6c0.1-0.1,0.1-0.2,0.1-0.4c0.2,0.1,0.2,0.2,0.1,0.4
			c-0.1,0.1-0.1,0.2-0.1,0.4C237.5,37.9,237.5,37.7,237.5,37.6 M258.5,37.6c0.1-0.1,0.2-0.3,0.3-0.5c0.1,0.4-0.1,0.8-0.6,1
			C258.3,37.9,258.4,37.7,258.5,37.6 M238.5,35.4C238.5,35.3,238.5,35.3,238.5,35.4C238.6,35.4,238.5,35.4,238.5,35.4 M254.7,43.6
			c-0.7,0.7-1.2,1.6-1.6,2.7c-0.1-0.1-0.2-0.2-0.2-0.1c0,0.1-0.1,0.1-0.1,0.1c-1.6,2.3-3.2,4.5-4.9,6.8c-1.7,2.2-3.5,4.2-5.6,6
			c0.2-0.2,0.4-0.4,0.5-0.6c0.2-0.2,0.3-0.3,0.4-0.5c-0.5,0.4-1,0.8-1.4,1.3c-0.4,0.5-0.9,0.9-1.4,1.2c-0.3-1.2-0.4-2.5-0.4-3.9
			c0-1.4,0.1-2.8,0.2-4.3c0.1-0.4,0.2-1,0.3-1.8c0.1-0.8,0.2-1.4,0.3-1.9c0.1-0.7,0.2-1.5,0.4-2.2c0.2-0.7,0.4-1.5,0.5-2.1
			c0.1-0.3,0.2-0.7,0.2-1.1c0-0.4,0.1-0.8,0.2-1.2c0.1-0.1,0.1-0.2,0.2-0.2c0.1,0,0.2-0.1,0.2-0.2c0.1-0.5,0.2-1,0.2-1.6
			c0-0.6,0.1-1.1,0.2-1.7c0.1-0.4,0.2-0.8,0.3-1.3c0.1-0.5,0.2-0.9,0.4-1.3c-0.3-0.4-0.7-0.6-1.2-0.7c-0.5-0.1-1-0.2-1.5-0.2
			c-0.6,0-1.1,0-1.6,0.1c-0.5,0.1-0.9,0.2-1.3,0.2c-0.1,0.2,0,0.3,0.1,0.3c0.2,0,0.2,0.1,0,0.2c-0.1,0.1-0.2,0.1-0.3,0.2
			c-0.1,0.1-0.2,0.2-0.3,0.2c-0.3,1.4-0.7,2.8-1.3,4.1c-0.5,1.3-0.8,2.7-1,4.2c0.3-0.5,0.5-1.1,0.6-1.8c0.1-0.7,0.2-1.3,0.6-1.8
			c0,0.5-0.1,0.9-0.3,1.3c-0.2,0.4-0.2,0.8,0,1.2c0.1-0.3,0.2-0.8,0.3-1.5c0.1-0.7,0.3-1.2,0.6-1.5c-0.1,0.7-0.3,1.3-0.5,1.9
			c-0.2,0.6-0.3,1.2-0.3,2c-0.6,1.4-1,3.2-1.2,5.2c-0.2,2-0.4,3.9-0.6,5.5c-0.1-0.5-0.1-1,0-1.6c0.1-0.6,0.1-1.1,0-1.5
			c-0.2,0.1-0.4,0-0.5-0.1c0,0.1,0,0.2,0,0.4c0,0.1,0,0.2,0,0.3c0.1,0.1,0.2,0,0.1-0.2c-0.1-0.2,0-0.2,0.2-0.1
			c-0.1,0.4-0.2,0.9-0.1,1.4c0,0.5,0,1-0.1,1.4c0.1-0.5,0.1-0.9,0-1.3c0-0.3,0-0.7,0-1.1c-0.1,0.4-0.2,0.9-0.3,1.6
			c-0.1,0.7,0,1.3,0.1,1.9c0.1,1.6,0.5,2.8,1.1,3.7c0.6,0.9,1.5,1.7,2.8,2.4c0.1,0.1,0.2,0.2,0.3,0.4c0.1,0.1,0.2,0.2,0.3,0.3
			c0.3,0.2,0.7,0.3,1.2,0.4c0.5,0.1,0.8,0.2,1.2,0.4c1.1,0,2-0.2,2.8-0.5c0.8-0.3,1.6-0.7,2.3-1.2c0.1-0.4,0.2-0.7,0.5-0.9
			c0.3-0.2,0.5-0.4,0.6-0.7c0.2,0,0.3,0,0.4,0.1c0.1,0,0.2-0.1,0.1-0.3c0-0.2,0.1-0.3,0.3-0.1c0.1,0,0.1-0.1,0.1-0.2
			c0-0.2,0.1-0.2,0.2,0c0-0.2,0-0.3,0.1-0.4c0.7-0.8,1.3-1.6,2-2.4c0.7-0.8,1.3-1.5,1.9-2.3c0-0.2,0-0.3-0.1-0.4
			c-0.1-0.1,0-0.1,0.1-0.2c0,0.1,0.1,0.1,0.4,0.1c0.2-0.8,0.6-1.5,1.1-2c0.5-0.6,0.8-1.2,1-1.9h0.3c-0.1-0.2,0-0.4,0.1-0.5
			c0.1-0.1,0.2-0.2,0.2-0.4c0.1,0.1,0.2,0.1,0.3,0c0.3-0.5,0.5-0.9,0.6-1.3c0.1-0.4,0.3-0.8,0.6-1.3c-0.1-0.1-0.1-0.1,0-0.2
			c0.1-0.1,0.1,0,0,0.2h0.2c0.1-0.7,0.3-1.4,0.6-2.2c0.3-0.8,0.6-1.5,0.9-2.2c0,0.1,0,0.2-0.1,0.3c-0.1,0.1-0.1,0-0.1-0.1
			c0.3-0.5,0.5-1,0.6-1.5c0.1-0.5,0.3-1.1,0.6-1.7c-0.1,0.1-0.1,0.2-0.1,0.3c0,0.1-0.1,0.1-0.1,0c0.1-0.1,0.1-0.3,0-0.4
			c-0.1-0.2,0-0.3,0.1-0.3c-0.1-0.4,0-0.7,0.1-0.9c0.2-0.2,0.2-0.5,0-0.7c-0.1,0.2-0.2,0.3-0.3,0.3c-0.1-0.1-0.2-0.2-0.5-0.3
			c-0.2,0.3-0.4,0.6-0.6,0.9c-0.2,0.3-0.4,0.6-0.4,0.9c0.1-0.1,0.1-0.2,0.2-0.4c0.1-0.2,0.2-0.3,0.2-0.1c-0.2,0.6-0.4,1.1-0.8,1.5
			c-0.3,0.4-0.7,0.8-1,1.2C255.9,42,255.3,42.9,254.7,43.6 M246.8,22.9c0.1-0.4,0.1-0.8,0.2-1.3c-0.5-1.1-1.3-1.9-2.3-2.2
			c-1-0.1-1.7,0.1-2.2,0.5c-0.5,0.4-1.1,0.6-1.8,0.7c0.1,1.1,0.1,2.1,0.2,3.2c0.1,1.1,0.3,2,0.5,3c0.6,0,1.1-0.1,1.4-0.3
			c0.3-0.2,0.8-0.3,1.3-0.3c0.3-0.2,0.6-0.5,0.9-0.7c0.3-0.2,0.6-0.6,0.9-1c0.1-0.1,0.2-0.1,0.2,0c0,0.1,0.1,0.1,0.2,0
			C246.7,23.7,246.8,23.3,246.8,22.9 M220.6,57.4c-0.1,0.1-0.1,0.1,0.1,0.1C220.7,57.4,220.7,57.3,220.6,57.4 M220.7,53.8
			c0-0.2-0.1-0.2-0.2,0C220.6,53.9,220.7,53.9,220.7,53.8 M221.2,49.7C221.1,49.7,221.1,49.7,221.2,49.7l-0.1,0.2
			C221.2,50,221.2,50,221.2,49.7c0.1-0.1,0.1-0.2,0-0.2C221.2,49.6,221.2,49.7,221.2,49.7 M221.4,46.1c0.1,0.2,0.1,0.3,0,0.4
			c-0.1,0.1,0,0.1,0.1,0.1c0.1-0.1,0.1-0.2,0-0.4C221.5,46.1,221.5,46,221.4,46.1 M221.4,45.4c0.1,0.1,0.2,0,0.2-0.2
			c-0.1,0-0.1-0.1-0.2-0.2V45.4z M221.6,43.7c0,0.1,0.1,0.1,0.2,0.1v-0.2C221.6,43.6,221.6,43.7,221.6,43.7 M221.9,43.6
			c0-0.3,0-0.5-0.1-0.5C221.6,43.3,221.6,43.5,221.9,43.6L221.9,43.6z M223,34.6c0,0.1,0,0.1,0,0.1c0-0.1,0-0.1,0.1-0.2
			c0.1-0.1,0-0.1-0.2-0.1C223,34.4,223.1,34.5,223,34.6 M223.2,34.1c0.1,0.1,0.1,0.1,0.1-0.2C223.1,33.9,223.1,34,223.2,34.1
			 M223.2,33.5c0,0,0,0.1,0,0.2c0.1,0,0.2-0.1,0.3-0.3c0.1-0.2,0-0.2-0.2-0.2C223.3,33.4,223.2,33.5,223.2,33.5 M223.3,32.7
			c-0.1,0.2,0,0.3,0.2,0.3c0-0.2,0-0.3,0-0.3c0,0,0-0.1,0-0.1C223.5,32.5,223.4,32.5,223.3,32.7 M223.9,30.1c0.1,0,0.1-0.1,0.1-0.2
			c-0.1,0-0.2,0.1-0.3,0.2c-0.1,0.1,0,0.2,0.1,0.2C223.8,30.2,223.8,30.2,223.9,30.1 M224.4,27.4c0.1,0.1,0.1,0,0.1-0.2
			C224.4,27.2,224.3,27.3,224.4,27.4 M221.1,61c0,0.2,0,0.1-0.1,0C221,60.9,221,60.9,221.1,61 M220.8,60.1
			C220.8,60,220.8,60,220.8,60.1c0-0.1,0-0.1,0-0.1C220.8,60,220.8,60,220.8,60.1C220.8,60.2,220.8,60.2,220.8,60.1 M221.3,59.6
			c-0.1,0-0.1-0.1,0-0.3C221.4,59.5,221.4,59.6,221.3,59.6 M221.3,58.8C221.3,59,221.3,59,221.3,58.8
			C221.3,58.6,221.3,58.6,221.3,58.8 M220.8,58.1c0-0.1,0-0.2,0-0.3c0.1,0.1,0.2,0.3,0.1,0.5C220.8,58.2,220.8,58.2,220.8,58.1
			 M221.2,57.7c-0.1-0.1-0.1-0.1,0-0.2c0.1-0.1,0.1-0.2,0-0.2c0.1,0,0.2,0.1,0.1,0.2C221.3,57.5,221.3,57.6,221.2,57.7 M221.2,56.5
			L221.2,56.5l0.1,0.2h-0.1V56.5z M221.2,56.1c-0.1-0.1-0.1-0.2,0-0.2c0.1,0,0.1-0.1,0-0.3c0.1,0,0.2,0.1,0.2,0.3
			C221.4,56.2,221.3,56.2,221.2,56.1 M221.1,55c0.1-0.2,0.1-0.4,0.1-0.7c0.2,0.1,0.2,0.3,0.2,0.6c-0.1,0.3-0.1,0.5-0.2,0.6
			C221.1,55.4,221.1,55.2,221.1,55 M221.4,53.6c0,0.1-0.1,0.1-0.2,0.1C221.2,53.6,221.3,53.6,221.4,53.6 M221.3,52.8
			c0-0.2,0.1-0.4,0.2-0.6c0.1,0.1,0.1,0.3,0,0.5c-0.1,0.2-0.1,0.4-0.1,0.6C221.3,53.3,221.2,53.1,221.3,52.8 M221.4,51.6
			c0.1-0.2,0.1-0.5,0.2-0.6c0.1,0.2,0.2,0.4,0.1,0.6c-0.1,0.2-0.1,0.4-0.2,0.6C221.4,52.1,221.3,51.9,221.4,51.6 M221.5,50.6
			c0.1,0,0.1-0.1,0.1-0.2c0.1,0,0.2,0.1,0.2,0.3c0,0.2-0.1,0.2-0.3,0.2C221.4,50.7,221.4,50.6,221.5,50.6 M221.5,49.8
			c0-0.2,0-0.3,0-0.4c0.2,0.1,0.3,0.2,0.2,0.3c0,0.1,0,0.3,0,0.5C221.6,50.1,221.5,50,221.5,49.8 M221.4,49.2
			C221.4,49.3,221.4,49.3,221.4,49.2C221.4,49,221.4,49,221.4,49.2 M221.8,47.3c0.1-0.2,0.1-0.5,0.1-0.7c0.2,0.1,0.2,0.3,0,0.6
			c-0.2,0.2-0.2,0.6,0,1h-0.1c0.1,0.1,0.1,0.2,0,0.4c0,0.1,0,0.3,0,0.5c-0.2,0-0.2-0.1-0.2-0.4c0.1-0.3,0.1-0.4,0.2-0.4
			C221.7,47.8,221.7,47.5,221.8,47.3 M222,45c0.1-0.4,0.2-0.9,0.3-1.4c0.1,0.5,0,1-0.1,1.4c-0.1,0.4-0.2,0.9-0.2,1.4
			C221.9,45.9,221.9,45.5,222,45 M222.3,43c0.1-0.3,0.2-0.6,0.2-0.7c0.2,0.1,0.3,0.3,0.1,0.6c-0.2,0.2-0.2,0.5-0.1,0.8
			C222.3,43.5,222.2,43.3,222.3,43 M222,41.9h0.3c-0.1,0.1-0.2,0.3-0.1,0.5c0.1,0.2,0,0.3-0.3,0.4C222,42.4,222,42.1,222,41.9
			 M222,41.4c0.1-0.2,0.2-0.2,0.4,0c-0.1,0.1-0.2,0.1-0.1,0.1c0.1,0,0.1,0.1,0.1,0.2c-0.2,0-0.3,0-0.3,0.1
			C222,41.6,222,41.5,222,41.4 M222.5,41.7c0.1-0.2,0.2-0.4,0.1-0.6c0.2,0.1,0.2,0.3,0.1,0.5c-0.1,0.2-0.2,0.4-0.2,0.5
			C222.4,42,222.4,41.9,222.5,41.7 M222.4,40L222.4,40l0.1,0.3h-0.1V40z M222.4,39c0-0.1,0-0.2,0.1-0.3c0.1,0.1,0.2,0.3,0.1,0.5
			C222.5,39.2,222.4,39.1,222.4,39 M222.7,37.4C222.6,37.6,222.6,37.6,222.7,37.4C222.9,37.3,222.9,37.3,222.7,37.4 M222.7,36.9
			c0.1,0,0.1-0.1,0.1-0.3c0.1,0,0.2,0.1,0.1,0.3c0,0.2-0.1,0.3-0.3,0.3C222.6,37,222.7,37,222.7,36.9 M222.9,36.1
			c-0.1-0.1,0-0.2,0.2-0.3c0,0.4-0.1,0.7-0.2,0.7C222.9,36.4,222.9,36.3,222.9,36.1 M223.7,33.9c0.1-0.2,0.2-0.4,0.3-0.6
			c0,0.2,0,0.4,0,0.6c0,0.2-0.1,0.3-0.2,0.5c-0.1,1.2-0.3,2.3-0.5,3.4c-0.2,1.1-0.4,2.2-0.6,3.2c0-1.2,0.1-2.4,0.3-3.4
			c0.2-1,0.4-2.1,0.7-3.3C223.7,34.3,223.7,34.2,223.7,33.9 M223.8,32.8h0.3V33h-0.3V32.8z M223.7,31.6L223.7,31.6l0.1,0.4h-0.1
			V31.6z M224,30.7c-0.1,0-0.1,0,0-0.2C224.1,30.6,224.1,30.7,224,30.7 M224.2,30.9c0-0.6,0.2-1.1,0.4-1.5c-0.1,0.4-0.1,0.9-0.1,1.6
			c0,0.7-0.2,1.2-0.5,1.4C224.1,32,224.2,31.5,224.2,30.9 M224.7,28.9c0-0.2,0-0.3,0-0.4c0.2,0,0.2,0.1,0.2,0.4
			c-0.1,0.3-0.2,0.4-0.3,0.4C224.6,29.2,224.7,29.1,224.7,28.9 M224.2,28.9c0-0.2,0.1-0.4,0.2-0.6c0.1,0.1,0.1,0.4,0,0.7
			c-0.1,0.4-0.2,0.6-0.3,0.6C224.2,29.4,224.2,29.2,224.2,28.9 M224.9,27.6c0.1,0.1,0.2,0.2,0.1,0.5c0,0.3-0.1,0.4-0.3,0.4
			C224.9,28,224.9,27.7,224.9,27.6 M225,27.2C225.1,27.2,225.1,27.2,225,27.2c0.2-0.2,0.2-0.1,0.2,0.2h-0.3
			C224.9,27.3,225,27.2,225,27.2 M225.1,26.9l0.1-0.2c0.1,0,0.1,0.1,0.1,0.2c0,0.2-0.1,0.2-0.2,0.1V26.9z M224.8,25.6
			c0-0.1,0.1-0.1,0.3-0.1C225.1,25.5,225,25.6,224.8,25.6 M225.4,25.2c0.2,0,0.2,0.1,0.1,0.4c-0.1,0.3-0.2,0.4-0.3,0.4
			C225.3,25.7,225.4,25.4,225.4,25.2 M225.1,24.9L225.1,24.9L225.1,24.9L225.1,24.9L225.1,24.9z M225.4,23.8
			C225.4,24,225.4,24,225.4,23.8C225.4,23.7,225.4,23.7,225.4,23.8 M225.4,23.1h0.3v0.2h-0.3V23.1z M225.9,23.1
			c0.2,0,0.2,0.1,0.1,0.4c-0.1,0.2-0.2,0.4-0.3,0.6C225.8,23.6,225.9,23.3,225.9,23.1 M225.9,22.7L225.9,22.7L225.9,22.7L225.9,22.7
			L225.9,22.7z M226.2,21.6h0.2v0.3h-0.2V21.6z M220.6,58.6c-0.1,0.3,0,0.7,0.1,1.1c0,0.1-0.1,0.1-0.3,0.1c0.2,0.3,0.4,0.7,0.3,1.2
			c0,0.5,0,0.9,0.2,1.2c-0.1,0.7,0.1,1.3,0.4,1.9c0.3,0.6,0.7,1.1,1,1.6c0.6,0.7,1.4,1.2,2.3,1.5c0.9,0.3,1.9,0.7,2.8,1
			c0,0.1,0.1,0.1,0.2,0c0.1,0,0.2,0,0.2,0.1c0.7,0,1.4-0.1,2-0.2s1.2-0.4,1.7-0.8c-0.1,0-0.2,0-0.2-0.1c0.1-0.1,0.3-0.2,0.5-0.3
			c0.2-0.1,0.3-0.2,0.3-0.6c-0.1-0.1-0.2-0.1-0.2,0s0,0.1-0.1,0c0.1-0.1,0.1-0.2,0.2-0.2c0.1,0,0.1-0.1,0.1-0.2h-0.3
			c0.2-0.5,0.3-0.9,0.1-1.3c-0.2-0.4-0.1-0.7,0.2-1c-0.1-0.1-0.2-0.1-0.2,0c0,0.2,0,0.2,0,0c0.2-0.2,0.3-0.5,0.1-0.7
			c-0.2-0.2-0.2-0.5,0-0.7c-0.1,0-0.1,0-0.1-0.1c-0.7,0.5-1.3,1.1-1.8,1.8c-0.4,0.7-1.1,1.2-1.9,1.5c-0.4-0.9-0.7-2-0.8-3.2
			c-0.1-1.2-0.2-2.4-0.1-3.5c0-1.2,0.1-2.3,0.1-3.5c0.1-1.2,0.1-2.2,0.1-3.2c0.3-0.4,0.4-0.9,0.4-1.7c-0.1-0.8,0-1.3,0.3-1.7
			c-0.1-0.9-0.1-1.8,0.2-2.7c0.2-0.9,0.4-1.8,0.4-2.7c0.3-0.9,0.5-1.8,0.5-2.7c0-1,0.2-1.8,0.4-2.5c-0.1,0-0.1-0.1-0.1-0.3
			c0.7-2.9,1.3-5.9,1.9-9c0.6-3.1,1-6.2,1.3-9.3c0.2-0.6,0.4-1.2,0.3-2c0-0.8-0.1-1.6-0.1-2.4c-0.2-0.1-0.3-0.2-0.3-0.3
			c0-0.2-0.1-0.3-0.2-0.4c-0.7-0.1-1.5-0.3-2.4-0.5c-0.9-0.2-1.7-0.1-2.5,0.3c-0.2-0.2-0.4-0.3-0.6-0.3c0.2,0.3,0.2,0.6,0,1
			c-0.2,0.4-0.2,0.7,0,1.1c-0.3,0.5-0.5,1.1-0.5,1.7c0,0.7-0.2,1.3-0.4,1.8c-0.1,0.1-0.1,0.2,0,0.3c0,0.1,0,0.2,0,0.3
			c-0.1,0-0.2,0.1-0.2,0.4c0,0.3,0,0.4,0,0.5h0.2h-0.2c-0.1,0.2-0.2,0.4-0.2,0.6c0,0.2,0,0.3,0.1,0.5c-0.1,0-0.1,0-0.2,0
			c-0.1,0-0.1,0-0.2,0c-0.1,0.1,0,0.2,0.1,0.2c0.1,0,0.2,0.1,0.2,0.3c-0.3,0.2-0.5,0.6-0.5,0.9c0,0.4,0,0.7-0.1,1
			c0-0.2,0.1-0.3,0.3-0.3c-0.1,0.1-0.1,0.2,0,0.3c0,0.1,0,0.2-0.1,0.2h-0.1c-0.1,0-0.1,0-0.1,0c0,0,0,0-0.1,0c0,0.3,0,0.6-0.1,0.9
			c-0.1,0.3-0.1,0.6-0.2,0.9c0.1,0.1,0.2,0,0.1-0.1c0-0.2,0-0.2,0.1-0.1c-0.1,0.1-0.1,0.3,0,0.5c0,0.2,0,0.4-0.1,0.4
			c-0.1-0.1-0.1-0.2,0-0.3c0-0.1,0-0.1-0.1,0v0.5l0.2,0.3c-0.1,0.1-0.1,0.2-0.2,0.2s-0.2,0-0.2,0.1c0.1,0.1,0.1,0.1,0.1,0.2
			s0.1,0.1,0.2,0.1c-0.3,0.1-0.5,0.4-0.5,0.7c0,0.4-0.1,0.7-0.3,1c0.2-0.1,0.4,0.1,0.4,0.5h-0.4c-0.1,0.1-0.1,0.3-0.1,0.4
			c0,0.2,0.1,0.3,0.3,0.3c-0.1,0.1-0.2,0.2-0.2,0.1c0-0.1-0.1-0.1-0.1,0c0,0.3-0.1,0.7-0.2,1h0.3c0,0.1,0,0.1,0,0.2
			c0,0.1,0,0.1,0,0.2c0.1,0,0.2,0.1,0.1,0.2c0,0.2-0.1,0.2-0.2,0.2c0.1,0.1,0.1,0.2,0,0.4c0,0.2-0.1,0.4-0.3,0.5
			c0.1,0.1,0.2,0.3,0.1,0.7c-0.1,0.3-0.2,0.5-0.3,0.6c0-0.2,0-0.4-0.1-0.4c0,0.1,0,0.3-0.1,0.4c-0.1,0.2,0,0.3,0.1,0.3
			c0-0.2,0.1-0.3,0.2-0.3v0.3H223c-0.1,0.4-0.3,0.8-0.4,1.2c-0.2,0.4,0,0.7,0.3,1c-0.4,0-0.5,0.1-0.5,0.4c0.1,0.1,0.2,0,0.2-0.1
			c0-0.1,0-0.1,0.1,0c0,0.1,0,0.2,0,0.4c0,0.1,0,0.2-0.2,0.3c-0.1-0.1-0.1-0.2,0-0.3c0.1-0.1,0.1-0.2,0-0.2c-0.2,0.3-0.2,0.6-0.1,1
			c0.1,0.3,0.1,0.6,0,0.7c0-0.1-0.1-0.2-0.2-0.2c0.1,0.1,0.1,0.2,0,0.2c-0.1,0-0.2,0.1-0.2,0.2c0.2,0,0.3,0.1,0.1,0.3
			c0.1,0.1,0.2,0.1,0.2,0c0-0.1,0.1-0.1,0.1,0c0,0.1-0.1,0.2-0.2,0.2c-0.1,0-0.2,0.1-0.2,0.2c0.1,0.1,0.2,0.1,0.2,0
			c0-0.1,0.1,0,0.2,0.1c-0.3,0.1-0.5,0.4-0.7,0.9c-0.2,0.5-0.1,0.9,0.2,1.1c-0.1,0.1-0.2,0.4-0.1,0.7c0.1,0.3,0,0.6-0.2,0.7
			c0-0.2-0.1-0.3-0.2-0.3c0,0.4-0.1,0.7-0.2,0.8c0.2,0,0.3,0,0.2-0.1c0-0.1,0-0.2,0.1-0.3c0.1,0.5,0.1,1,0,1.6c0,0.6-0.2,1-0.4,1.2
			c0-0.1,0-0.2-0.1-0.3c-0.1,0.2-0.1,0.5,0.1,0.6c0-0.1,0-0.1,0.1-0.1c0,0.1,0,0.2,0.1,0.3c0.1,0.2,0,0.2-0.3,0.2
			c0.1-0.1,0.1-0.1,0.1-0.2c0-0.1-0.1-0.1-0.2-0.1v0.8c0.1-0.1,0.2-0.1,0.3,0.1c0.1,0.2,0,0.3-0.1,0.3c-0.1-0.1-0.1-0.1-0.1-0.2
			c0-0.1,0-0.1-0.1-0.2c-0.1,0.2-0.1,0.7,0.2,1.2c-0.1,0.1-0.1,0.2-0.1,0.3c0,0.1-0.1,0.2-0.2,0.3c0.2,0.1,0.4,0.2,0.3,0.5
			c0,0.2-0.1,0.5-0.1,0.6c-0.2-0.2-0.2-0.6,0-0.9c-0.3,0-0.4,0.1-0.3,0.3c0.1,0.2,0.1,0.4-0.1,0.5c0.1,0.1,0.2,0.2,0.3,0.2
			c0.2,0,0.2,0.1,0,0.2c-0.1,0-0.2,0-0.2,0c0,0,0,0-0.1,0c0.1,0.1,0,0.2-0.2,0.2c-0.2,0-0.2,0.1,0,0.2c0.1-0.1,0.1-0.2,0.2-0.1
			c0.1,0.1,0.2,0.1,0.3,0.2c-0.1,0.1-0.2,0.2-0.2,0.3c0,0.1,0,0.1-0.1,0.2c-0.1-0.1-0.1-0.1,0-0.2c0.1-0.1,0.1-0.1-0.2-0.1
			c-0.1,0.2-0.1,0.5,0,0.7c0.1,0.2,0.1,0.5,0.2,0.7c-0.1-0.1-0.2-0.1-0.1,0c0,0.1,0,0.2,0,0.2c0.1,0.1,0.1,0.1,0.1,0
			c0-0.1,0-0.1,0,0c-0.1,0.2-0.2,0.5-0.3,0.7c-0.1,0.2,0,0.3,0.2,0.5c-0.2,0.1-0.4,0.2-0.4,0.4c0,0.2,0.1,0.4,0.2,0.6
			c0.1,0,0.1-0.1,0-0.2c-0.1-0.2,0-0.2,0.2-0.2c-0.1,0.1-0.1,0.3-0.1,0.4c0,0.2-0.1,0.2-0.2,0.2c-0.1,0.1-0.1,0.2,0,0.2
			c0.2,0,0.2,0.1,0.1,0.3c-0.1,0-0.1,0-0.1-0.1c0-0.1-0.1,0-0.2,0.1c0.1,0,0.1,0,0,0.1c-0.1,0.1-0.1,0.2,0,0.3c0,0.1,0.1,0.1,0.2,0
			c0.1,0,0.2,0,0.2,0.1c-0.2,0-0.3,0-0.1,0.1c0.2,0.1,0.2,0.2,0.1,0.3h-0.2C220.7,57.9,220.7,58.3,220.6,58.6"/>
	</g>
	<g>
		<rect class="st0" width="85.1" height="85.1"/>
		<g>
			<path class="st1" d="M53.8,59.3l-1.7-2.1v2.1h-5.6v-3.6c-0.7,0.3-1.5,0.5-2.4,0.5h-2v3.1h-8.5l-1.5-2l-1.5,2h-14V46h14.1l1.5,2
				l1.5-2h51.4V0H0v35.9l3.2-7.5h5.5l1.8,4.2v-4.2h6.9l1.1,3l1.1-3h30.8V30c1.1-1,2.6-1.5,4.4-1.5h9.8l1.8,4.2v-4.2h5.8l1.5,2.4
				v-2.4h5.8v13.4h-5.8l-1.5-2.4v2.4h-8.4l-0.8-2h-2.3l-0.8,2h-5.2c-1.7,0-3.2-0.5-4.2-1.4v1.4h-8.6L40,39.7v2.1H7.9l-0.8-2H4.8
				l-0.8,2H0v43.4h85.1V58.3c-0.9,0.6-2,1-3.2,1H53.8z"/>
			<path class="st1" d="M58.7,40.1l0.8-2H64l0.8,2h2.9l-4.3-10h-3.3l-4.3,10H58.7z M61.8,32.5l1.4,3.4h-2.8L61.8,32.5z"/>
			<polygon class="st1" points="70.6,33.7 74.7,40.1 77.8,40.1 77.8,30.1 75.2,30.1 75.2,36.3 71.2,30.1 68,30.1 68,40.1 70.6,40.1 
							"/>
			<path class="st1" d="M8.2,38.1l0.8,2h2.9l-4.3-10H4.3L0,40.1h2.8l0.8-2H8.2z M5.9,32.5l1.4,3.4H4.5L5.9,32.5z"/>
			<polygon class="st1" points="24.7,40.1 24.7,30.1 20.7,30.1 18.5,36.5 16.2,30.1 12.2,30.1 12.2,40.1 14.7,40.1 14.7,32.7 
				17.3,40.1 19.6,40.1 22.2,32.7 22.2,40.1 			"/>
			<polygon class="st1" points="34.6,32.3 34.6,30.1 26.4,30.1 26.4,40.1 34.6,40.1 34.6,37.9 29,37.9 29,36.2 34.5,36.2 34.5,34 
				29,34 29,32.3 			"/>
			<path class="st1" d="M45.1,33.3c0-1.9-1.3-3.2-3.5-3.2H36v10h2.5v-3.6h1l3,3.6h3.1l-3.3-3.7C44.1,36.1,45.1,34.9,45.1,33.3z
				 M41.3,34.4h-2.8v-2h2.8c0.8,0,1.2,0.5,1.2,1C42.5,33.9,42.1,34.4,41.3,34.4z"/>
			<polygon class="st1" points="46.1,30.1 46.1,35.2 46.1,40.1 48.7,40.1 48.7,35.2 48.7,30.1 			"/>
			<polygon class="st1" points="26.4,49.9 26.4,47.6 18.3,47.6 18.3,57.7 26.4,57.7 26.4,55.4 20.8,55.4 20.8,53.7 26.3,53.7 
				26.3,51.5 20.8,51.5 20.8,49.9 			"/>
			<polygon class="st1" points="29.8,57.7 32.1,54.5 34.5,57.7 37.7,57.7 33.7,52.6 37.7,47.6 34.6,47.6 32.2,50.7 29.8,47.6 
				26.6,47.6 30.7,52.7 26.7,57.7 			"/>
			<path class="st1" d="M37.9,47.6v10h2.5v-3.3h3c2.2,0,3.6-1.4,3.6-3.4c0-2-1.3-3.4-3.5-3.4H37.9z M44.5,51c0,0.6-0.4,1.1-1.2,1.1
				h-2.8v-2.3h2.8C44.1,49.9,44.5,50.4,44.5,51z"/>
			<path class="st1" d="M57.2,50.9c0-1.9-1.3-3.2-3.5-3.2h-5.6v10h2.5v-3.6h1l3,3.6h3.1L54.6,54C56.2,53.7,57.2,52.4,57.2,50.9z
				 M53.5,51.9h-2.8v-2h2.8c0.8,0,1.2,0.5,1.2,1C54.6,51.5,54.2,51.9,53.5,51.9z"/>
			<polygon class="st1" points="66.4,49.9 66.4,47.6 58.2,47.6 58.2,57.7 66.4,57.7 66.4,55.4 60.8,55.4 60.8,53.7 66.3,53.7 
				66.3,51.5 60.8,51.5 60.8,49.9 			"/>
			<path class="st1" d="M72.7,55.4h-5.2v2.3h5.2c2.2,0,3.5-1.3,3.5-3.3c0-1.8-1.1-2.9-3.1-2.9h-2.4c-0.5,0-0.9-0.3-0.9-0.8
				c0-0.5,0.4-0.8,0.9-0.8H75l1-2.3h-5.3c-2.2,0-3.5,1.3-3.5,3.2c0,1.9,1.2,3,3.1,3h2.4c0.5,0,0.9,0.3,0.9,0.8
				C73.7,55.1,73.3,55.4,72.7,55.4z"/>
			<path class="st1" d="M79.9,49.9h4.3l1-2.3h-5.3c-2.2,0-3.5,1.3-3.5,3.2c0,1.9,1.2,3,3.1,3h2.4c0.5,0,0.9,0.3,0.9,0.8
				c0,0.5-0.4,0.8-0.9,0.8h-5.2v2.3h5.2c2.2,0,3.5-1.3,3.5-3.3c0-1.8-1.1-2.9-3.1-2.9h-2.4c-0.5,0-0.9-0.3-0.9-0.8
				C79,50.2,79.4,49.9,79.9,49.9z"/>
		</g>
		<path class="st1" d="M49.9,35v0.1c0,3.1,1.8,4.9,4.7,4.9h0.2l1-2.3H55c-1.6,0-2.5-1-2.5-2.7V35c0-1.5,0.8-2.6,2.5-2.6h2.7v-2.3
			h-2.9C51.6,30.1,49.9,32.2,49.9,35z"/>
	</g>
</g>
<g>
	<path d="M621.5,38v-4.2H620v-1h4.2v1h-1.5V38H621.5z"/>
	<path d="M625.4,38v-5.2h1.5l1.2,3.8h0l1.1-3.8h1.5V38h-1.1v-3.5h0c-0.1,0.4-0.2,0.8-0.3,1.2l-0.8,2.4h-1l-0.8-2.4
		c-0.1-0.4-0.2-0.6-0.3-1.2h0V38H625.4z"/>
</g>
</svg>
